<svg width="201" height="200" viewBox="0 0 201 200" fill="none" xmlns="http://www.w3.org/2000/svg">
<g id="Frame">
<g id="Group">
<path id="Vector" d="M94.0049 13.8896H106.995V41.1498H94.0049V13.8896Z" fill="#444545"/>
<path id="Vector_2" d="M100.5 199.999C146.055 199.999 182.984 163.07 182.984 117.516C182.984 71.9614 146.055 35.0322 100.5 35.0322C54.9458 35.0322 18.0166 71.9614 18.0166 117.516C18.0166 163.07 54.9458 199.999 100.5 199.999Z" fill="#E570B0"/>
<path id="Vector_3" d="M100.5 35.0322C98.8051 35.0322 97.1234 35.09 95.4531 35.1912C138.593 37.8084 172.89 73.7295 172.89 117.516C172.89 161.303 138.593 197.224 95.4531 199.841C97.1234 199.942 98.8051 200 100.5 200C145.982 200 182.984 162.998 182.984 117.516C182.984 72.0338 145.982 35.0322 100.5 35.0322Z" fill="#BC46A3"/>
<path id="Vector_4" d="M147.256 158.664C142.416 164.161 136.648 168.765 130.214 172.266C129.45 172.684 126.162 172.065 126.162 172.065C126.162 172.065 125.832 174.443 124.778 174.89C118.194 177.682 111.031 179.368 103.518 179.727C103.184 179.743 102.737 179.284 102.29 178.66C101.397 177.417 100.5 175.526 100.5 175.526C100.5 175.526 99.2041 178.254 98.174 179.312C97.9205 179.578 97.6791 179.735 97.4818 179.727C96.8023 179.695 96.1234 179.65 95.4455 179.594H95.4416C88.8244 179.067 82.3351 177.478 76.2225 174.89C75.4537 174.564 74.8381 169.195 74.8381 169.195C74.8381 169.195 71.8201 172.833 70.7857 172.266C64.3523 168.765 58.5839 164.161 53.7436 158.664C53.1076 157.94 54.5604 154.274 54.5604 154.274C54.5604 154.274 50.5924 154.797 49.9768 153.948C45.6856 148.011 42.4799 141.361 40.508 134.306C40.2584 133.413 43.6791 130.717 43.6791 130.717C43.6791 130.717 39.3611 129.489 39.1717 128.418C38.5439 124.877 38.2178 121.235 38.2178 117.517C38.2178 113.799 38.5439 110.157 39.1717 106.615C39.3568 105.549 43.6787 104.318 43.6787 104.318C43.6787 104.318 40.258 101.626 40.5076 100.728C42.4804 93.6737 45.6861 87.0238 49.9764 81.0864C50.5639 80.2696 56.1814 82.4786 56.1814 82.4786C56.1814 82.4786 53.0787 77.1267 53.7428 76.37C58.5832 70.8722 64.3516 66.2671 70.785 62.7646C71.6662 62.2857 75.4451 64.1247 75.4451 64.1247C75.4451 64.1247 75.2881 60.5353 76.2217 60.145C82.337 57.5512 88.831 55.9614 95.4529 55.4368H95.465C96.133 55.3806 96.8053 55.336 97.4811 55.304C97.6783 55.2958 97.9158 55.4528 98.1732 55.7146C99.1994 56.7728 100.499 59.5052 100.499 59.5052L144.081 149.123L146.222 153.521C146.222 153.521 147.892 157.94 147.256 158.664Z" fill="white"/>
<path id="Vector_5" d="M155.512 140.037L142.721 151.325C142.657 151.397 100.5 117.518 100.5 117.518V56.0488C100.5 56.0488 118.214 57.3727 124.778 60.1453L126.5 63.9359L146.44 80.7609L158.23 104.318L155.512 140.037Z" fill="#FCA7C8"/>
<path id="Vector_6" d="M161.828 128.418L157.321 130.217L160.488 134.301C158.508 141.388 155.201 148.116 151.02 153.943L142.722 151.324C149.028 141.585 152.69 129.979 152.69 117.517C152.69 86.5553 130.099 60.8732 100.501 56.0482L103.519 55.3037C110.835 55.6573 118.031 57.2959 124.779 60.1447L126.501 63.9354L130.215 62.7643C136.65 66.2656 142.418 70.8709 147.258 76.3697L146.441 80.76L151.024 81.0857C155.315 87.023 158.521 93.6728 160.493 100.728L158.231 104.317L161.829 106.615C162.462 110.214 162.781 113.862 162.783 117.516C162.782 121.175 162.432 124.933 161.828 128.418Z" fill="#FCA7C8"/>
<path id="Vector_7" d="M106.471 116.702C105.82 116.702 105.187 116.493 104.666 116.105C104.144 115.717 103.761 115.17 103.575 114.547C103.389 113.924 103.41 113.258 103.633 112.647C103.856 112.036 104.271 111.514 104.815 111.158L125.724 97.4751C126.394 97.0368 127.211 96.8825 127.994 97.0462C128.778 97.2099 129.464 97.6781 129.902 98.3479C130.341 99.0177 130.495 99.8341 130.331 100.618C130.167 101.401 129.699 102.088 129.029 102.526L108.12 116.209C107.63 116.53 107.057 116.702 106.471 116.702Z" fill="#E42021"/>
<path id="Vector_8" d="M100.5 120.329C97.4734 120.329 95.0195 117.875 95.0195 114.848V76.8695C95.0195 73.8426 97.4734 71.3887 100.5 71.3887C103.527 71.3887 105.981 73.8426 105.981 76.8695V114.848C105.981 117.875 103.527 120.329 100.5 120.329Z" fill="#8CC541"/>
<path id="Vector_9" d="M95.3382 118.457C94.7233 116.729 94.9889 114.733 96.2167 113.195C98.1049 110.829 101.553 110.442 103.919 112.33L123.855 128.307C126.22 130.195 126.607 133.643 124.719 136.009C122.831 138.375 119.382 138.762 117.016 136.874L97.0811 120.897C96.2837 120.262 95.68 119.417 95.3382 118.457Z" fill="#8CC541"/>
<path id="Vector_10" d="M128.36 4.88125V13.4488C128.36 16.1449 126.174 18.3301 123.478 18.3301H77.5229C74.8268 18.3301 72.6416 16.1449 72.6416 13.4488V4.88125C72.6416 2.18516 74.8264 0 77.5229 0H123.479C126.175 0 128.36 2.18516 128.36 4.88125Z" fill="#444545"/>
<path id="Vector_11" d="M123.476 0H112.577C115.274 0 117.459 2.18594 117.459 4.88203V13.4484C117.459 16.1445 115.273 18.3305 112.577 18.3305H123.476C126.172 18.3305 128.358 16.1445 128.358 13.4484V4.88203C128.358 2.18594 126.173 0 123.476 0Z" fill="#444545"/>
<path id="Vector_12" d="M83.5547 0H89.591V18.3301H83.5547V0ZM97.4824 0H103.519V18.3301H97.4824V0ZM111.41 0H117.446V18.3301H111.41V0Z" fill="black"/>
<path id="Vector_13" d="M103.518 56.6154V60.7604C103.518 62.4303 102.166 63.7783 100.5 63.7783C98.834 63.7783 97.482 62.4303 97.482 60.7604V55.6338C98.4801 55.5854 99.9234 55.5088 100.938 55.5088C101.952 55.5088 103.518 56.6154 103.518 56.6154ZM77.184 69.1025C76.7757 69.2979 76.3288 69.3996 75.8762 69.4002C75.3076 69.4009 74.7504 69.2407 74.269 68.9381C73.7876 68.6355 73.4017 68.2028 73.1559 67.69L70.7855 62.7646C72.5533 61.8019 74.3677 60.9277 76.2223 60.1451L78.5926 65.0748C79.3168 66.5752 78.6852 68.3779 77.184 69.1025ZM58.4879 84.0119C58.2411 84.3223 57.9356 84.5809 57.5887 84.773C57.2419 84.9651 56.8605 85.0868 56.4665 85.1313C56.0726 85.1758 55.6737 85.1421 55.2927 85.0322C54.9118 84.9223 54.5562 84.7383 54.2465 84.4908L49.977 81.0865C51.1558 79.4546 52.4129 77.8806 53.7438 76.3701L58.0094 79.7705C59.3129 80.8088 59.5262 82.708 58.4879 84.0119ZM48.1098 105.561C47.9314 106.341 47.4505 107.019 46.7728 107.444C46.0952 107.87 45.2762 108.009 44.4961 107.831L39.1719 106.615C39.5219 104.619 39.9687 102.656 40.5078 100.728L45.8398 101.943C46.6202 102.123 47.2974 102.604 47.7229 103.283C48.1485 103.961 48.2876 104.78 48.1098 105.561ZM45.8398 133.09L40.5078 134.306C39.9655 132.366 39.5196 130.402 39.1719 128.418L44.4957 127.203C46.1215 126.833 47.7391 127.851 48.1094 129.472C48.2876 130.253 48.1486 131.073 47.7231 131.751C47.2976 132.429 46.6203 132.911 45.8398 133.09ZM58.009 155.263L53.7434 158.664C52.4137 157.152 51.1567 155.578 49.9766 153.947L54.2461 150.543C55.5457 149.505 57.4453 149.718 58.4875 151.022C59.5262 152.326 59.3129 154.225 58.009 155.263ZM78.5926 169.96L76.2223 174.889C74.3678 174.105 72.5533 173.229 70.7855 172.265L73.1559 167.344C73.5028 166.623 74.122 166.068 74.8774 165.804C75.6328 165.539 76.4625 165.585 77.184 165.931C78.6852 166.656 79.3168 168.458 78.5926 169.96ZM103.518 174.274V178.415C102.516 178.463 102.533 179.519 101.523 179.519C100.509 179.519 98.4797 179.445 97.4816 179.396V174.274C97.4814 173.877 97.5594 173.485 97.7109 173.118C97.8625 172.752 98.0848 172.419 98.3651 172.139C98.6454 171.859 98.9782 171.637 99.3444 171.485C99.7107 171.333 100.103 171.255 100.5 171.256C100.896 171.255 101.289 171.333 101.655 171.485C102.021 171.636 102.354 171.859 102.634 172.139C102.915 172.419 103.137 172.752 103.289 173.118C103.44 173.485 103.518 173.877 103.518 174.274ZM126.884 171.098L122.778 170.732L122.407 169.96C121.683 168.458 122.315 166.656 123.816 165.931C125.305 165.215 127.092 165.827 127.824 167.308C127.832 167.319 127.839 167.331 127.845 167.344L126.884 171.098Z" fill="#444545"/>
<path id="Vector_14" d="M97.4824 179.397C99.5095 179.169 101.524 178.841 103.519 178.415V179.726C101.508 179.823 99.4936 179.823 97.4828 179.726L97.4824 179.397ZM130.215 172.266C128.447 173.229 126.632 174.105 124.778 174.89L122.778 170.733C124.516 169.675 126.2 168.532 127.825 167.308C127.833 167.319 127.84 167.331 127.845 167.344L130.215 172.266ZM151.02 153.944C150.46 154.725 149.88 155.491 149.281 156.242C149.223 156.307 149.17 156.375 149.12 156.447C148.516 157.199 147.894 157.939 147.257 158.664L142.991 155.263C141.688 154.225 141.474 152.326 142.512 151.022C143.555 149.718 145.454 149.505 146.754 150.543L151.02 153.944ZM161.829 128.419C161.482 130.401 161.035 132.365 160.489 134.302L155.161 133.09C154.38 132.911 153.703 132.429 153.277 131.751C152.852 131.073 152.713 130.253 152.891 129.473C153.261 127.851 154.879 126.833 156.505 127.203L161.829 128.419ZM161.829 106.616L156.505 107.831C155.725 108.009 154.906 107.87 154.228 107.445C153.55 107.019 153.069 106.342 152.891 105.562C152.713 104.781 152.852 103.961 153.277 103.283C153.703 102.605 154.38 102.123 155.161 101.944L160.493 100.729C161.035 102.668 161.481 104.633 161.829 106.616ZM151.023 81.0865L146.754 84.4908C146.444 84.7384 146.089 84.9224 145.708 85.0324C145.327 85.1423 144.928 85.176 144.534 85.1315C144.14 85.087 143.758 84.9652 143.412 84.7731C143.065 84.581 142.759 84.3223 142.512 84.0119C141.474 82.708 141.688 80.8088 142.991 79.7705L147.257 76.3701C148.587 77.8809 149.844 79.4548 151.023 81.0865Z" fill="#444545"/>
<path id="Vector_15" d="M126.5 63.9355L127.844 67.6902C127.84 67.7023 127.832 67.7145 127.824 67.7266C127.301 68.7891 126.234 69.4008 125.124 69.4008C124.671 69.4002 124.224 69.2985 123.816 69.1031C122.315 68.3789 121.683 66.5762 122.408 65.075L122.782 64.3023L126.5 63.9355Z" fill="#A79BA7"/>
<g id="Group_2">
<path id="Vector_16" d="M100.5 55.2314C101.514 55.2314 102.52 55.2557 103.518 55.3037V56.6154C101.523 56.1891 99.5085 55.8614 97.4814 55.6334V55.3033C98.4795 55.2557 99.4857 55.2314 100.5 55.2314ZM130.214 62.7646L127.844 67.69C127.84 67.7021 127.832 67.7143 127.824 67.7264C126.201 66.502 124.518 65.359 122.781 64.3018L124.778 60.1447C126.641 60.9299 128.451 61.8072 130.214 62.7646Z" fill="#444545"/>
</g>
</g>
</g>
</svg>
