<svg width="20" height="20" viewBox="0 0 20 20" fill="none" xmlns="http://www.w3.org/2000/svg">
<g id="Frame">
<g id="Group">
<path id="Vector" d="M18.5021 16.5517H1.49785C0.670586 16.5517 0 15.8811 0 15.0538V4.94609C0 4.11887 0.670586 3.44824 1.49785 3.44824H18.5021C19.3294 3.44824 20 4.11883 20 4.94609V15.0539C20 15.8811 19.3294 16.5517 18.5021 16.5517Z" fill="#73AF00"/>
<path id="Vector_2" d="M4.13829 7.90146C4.17228 8.11931 4.30396 8.18767 4.41841 8.17873C4.55341 8.16826 4.67181 8.04482 4.67181 7.91443V7.16685C4.67181 7.12943 4.70228 7.09888 4.73978 7.09888C4.77728 7.09888 4.80775 7.12939 4.80775 7.16685V7.91763C4.80771 7.96205 4.81858 8.00579 4.8394 8.04502C4.86022 8.08425 4.89036 8.11777 4.92716 8.14263C4.96394 8.16756 5.00628 8.18309 5.05046 8.18785C5.09464 8.19261 5.13931 8.18646 5.18056 8.16994L5.24849 8.14279C5.25474 8.77033 5.21658 9.32185 5.21587 9.33197C5.21454 9.3506 5.21705 9.36931 5.22327 9.38693C5.22949 9.40455 5.23928 9.42069 5.25201 9.43436C5.26475 9.44802 5.28017 9.45891 5.29731 9.46635C5.31445 9.47379 5.33293 9.47762 5.35162 9.47759C5.38597 9.47756 5.41904 9.46452 5.44417 9.4411C5.4693 9.41768 5.48464 9.38561 5.48708 9.35134C5.49025 9.30716 5.53212 8.70314 5.51954 8.03435L5.56064 8.01794C5.57845 8.01086 5.59755 8.00762 5.6167 8.00842C5.63585 8.00922 5.65461 8.01405 5.67177 8.02259C5.74467 8.05903 5.82718 8.07161 5.90762 8.05855C5.98806 8.04549 6.06235 8.00745 6.11997 7.94982L6.14447 7.92537C6.19821 7.87193 6.23592 7.80452 6.25331 7.73076C6.27071 7.657 6.2671 7.57984 6.2429 7.50802L6.12716 7.1608C6.15792 7.17015 6.19099 7.16834 6.22055 7.15569C6.25011 7.14304 6.27425 7.12036 6.28872 7.09166C6.30485 7.05941 6.3075 7.02208 6.29611 6.98788C6.28471 6.95367 6.26019 6.9254 6.22794 6.90927L5.95611 6.77333C5.93206 6.76131 5.90499 6.75668 5.87831 6.76004C5.85163 6.76341 5.82655 6.7746 5.80624 6.79222C5.78593 6.80983 5.77129 6.83308 5.76419 6.85901C5.75709 6.88494 5.75784 6.9124 5.76634 6.9379L5.98505 7.59408C5.99311 7.61801 5.99431 7.64373 5.98851 7.66831C5.98271 7.6929 5.97015 7.71537 5.95224 7.73318L5.92779 7.75763C5.91047 7.77489 5.88816 7.78628 5.86403 7.79018C5.83989 7.79409 5.81513 7.79031 5.79326 7.77939C5.70517 7.73537 5.60486 7.72712 5.51076 7.75111C5.49165 7.31482 5.44466 6.88037 5.34458 6.58001C5.33895 6.56307 5.33003 6.5474 5.31833 6.53391C5.30663 6.52042 5.29238 6.50936 5.27641 6.50139C5.26043 6.49341 5.24304 6.48866 5.22522 6.48741C5.20741 6.48616 5.18952 6.48844 5.17259 6.49412C5.15565 6.49975 5.13999 6.50866 5.1265 6.52036C5.11301 6.53205 5.10195 6.54628 5.09397 6.56225C5.08599 6.57822 5.08124 6.5956 5.07998 6.61341C5.07872 6.63122 5.08099 6.6491 5.08665 6.66603C5.18458 6.95974 5.22724 7.40736 5.2424 7.85244L5.07966 7.91751V7.16673C5.07966 6.97931 4.9272 6.82689 4.73982 6.82689C4.55244 6.82689 4.39997 6.97931 4.39997 7.16673V7.82474L4.2613 7.13978C4.25784 7.12225 4.25094 7.10557 4.241 7.09072C4.23105 7.07587 4.21827 7.06313 4.20338 7.05324C4.18849 7.04336 4.17179 7.03652 4.15424 7.03312C4.1367 7.02973 4.11865 7.02984 4.10115 7.03345C4.08365 7.037 4.06702 7.04395 4.05221 7.05392C4.0374 7.06389 4.0247 7.07668 4.01483 7.09156C4.00497 7.10644 3.99813 7.12312 3.99471 7.14064C3.99129 7.15816 3.99135 7.17619 3.9949 7.19369L4.13829 7.90146ZM4.40001 6.75908C4.43606 6.75907 4.47063 6.74474 4.49611 6.71925C4.5216 6.69376 4.53591 6.65919 4.53591 6.62314V6.48724C4.53622 6.4692 4.53293 6.45128 4.52623 6.43452C4.51954 6.41776 4.50958 6.4025 4.49693 6.38963C4.48428 6.37676 4.46919 6.36655 4.45255 6.35957C4.4359 6.35259 4.41804 6.349 4.39999 6.349C4.38195 6.349 4.36408 6.35259 4.34744 6.35957C4.3308 6.36655 4.31571 6.37676 4.30306 6.38963C4.29041 6.4025 4.28045 6.41776 4.27375 6.43452C4.26706 6.45128 4.26377 6.4692 4.26408 6.48724V6.62314C4.26408 6.65919 4.2784 6.69377 4.30389 6.71926C4.32938 6.74476 4.36396 6.75908 4.40001 6.75908ZM5.75927 6.62314H5.89521C5.91325 6.62345 5.93117 6.62016 5.94793 6.61346C5.96469 6.60677 5.97995 6.59681 5.99282 6.58415C6.00568 6.5715 6.01591 6.55642 6.02288 6.53977C6.02986 6.52313 6.03345 6.50527 6.03345 6.48722C6.03345 6.46918 6.02986 6.45131 6.02288 6.43467C6.01591 6.41803 6.00568 6.40294 5.99282 6.39029C5.97995 6.37764 5.96469 6.36767 5.94793 6.36098C5.93117 6.35429 5.91325 6.351 5.89521 6.3513H5.75927C5.72322 6.3513 5.68865 6.36562 5.66316 6.39111C5.63767 6.4166 5.62335 6.45117 5.62335 6.48722C5.62335 6.52327 5.63767 6.55784 5.66316 6.58333C5.68865 6.60882 5.72322 6.62314 5.75927 6.62314Z" fill="white"/>
<path id="Vector_3" d="M4.87376 8.40956L4.19411 8.81738C4.1786 8.82646 4.16504 8.83853 4.15422 8.85289C4.14341 8.86725 4.13555 8.88361 4.1311 8.90102C4.12664 8.91844 4.12569 8.93657 4.12829 8.95435C4.13089 8.97214 4.137 8.98924 4.14625 9.00465C4.1555 9.02006 4.16772 9.03349 4.18219 9.04415C4.19667 9.0548 4.21312 9.06249 4.23058 9.06675C4.24804 9.07101 4.26618 9.07176 4.28394 9.06897C4.3017 9.06617 4.31872 9.05988 4.33403 9.05046L5.01368 8.64265C5.0292 8.63357 5.04275 8.6215 5.05357 8.60714C5.06439 8.59278 5.07225 8.57642 5.0767 8.559C5.08115 8.54159 5.0821 8.52346 5.0795 8.50567C5.0769 8.48788 5.0708 8.47079 5.06155 8.45538C5.05229 8.43996 5.04008 8.42654 5.0256 8.41588C5.01112 8.40522 4.99468 8.39754 4.97721 8.39328C4.95975 8.38902 4.94161 8.38826 4.92386 8.39106C4.9061 8.39385 4.88907 8.40014 4.87376 8.40956Z" fill="white"/>
<path id="Vector_4" d="M6.7063 8.65001L6.70951 8.64786C6.72091 8.6938 6.74048 8.73825 6.77224 8.77559C6.82748 8.84063 6.91029 8.87333 7.00388 8.86559C7.13665 8.85591 7.22689 8.79524 7.28665 8.71692C7.29576 8.72317 7.30533 8.72887 7.31533 8.73391C7.3888 8.77094 7.47376 8.76813 7.55466 8.72618C7.76009 8.6204 7.80435 8.37563 7.7981 8.24766C7.79443 8.17305 7.73099 8.1204 7.65658 8.11891C7.62067 8.12056 7.58687 8.1363 7.56252 8.16273C7.53816 8.18916 7.52522 8.22413 7.5265 8.26005C7.52654 8.26176 7.52958 8.42305 7.43099 8.48294C7.4149 8.46051 7.39583 8.41005 7.38865 8.36837C7.37716 8.2984 7.31291 8.24969 7.24376 8.25528C7.20972 8.25808 7.17797 8.27356 7.15479 8.29865C7.13161 8.32375 7.1187 8.35663 7.11861 8.39079C7.11857 8.41055 7.11416 8.58501 6.97951 8.59958C6.96384 8.57821 6.96357 8.48821 6.979 8.42169C6.98534 8.39502 6.98347 8.36706 6.97364 8.34148C6.96381 8.3159 6.94647 8.29388 6.92391 8.27832C6.90134 8.26277 6.8746 8.25439 6.8472 8.2543C6.81979 8.25421 6.79299 8.26241 6.77033 8.27782L6.69447 8.32942C6.65845 7.54114 6.57544 6.62258 6.57443 6.61083C6.57287 6.59303 6.56781 6.57572 6.55953 6.55989C6.55125 6.54406 6.53993 6.53002 6.5262 6.51858C6.51248 6.50715 6.49663 6.49854 6.47956 6.49325C6.4625 6.48796 6.44456 6.4861 6.42677 6.48778C6.40898 6.48939 6.39169 6.4945 6.37588 6.5028C6.36006 6.5111 6.34604 6.52244 6.33461 6.53616C6.32318 6.54988 6.31456 6.56573 6.30926 6.58278C6.30395 6.59983 6.30206 6.61777 6.30369 6.63555C6.30486 6.64813 6.40087 7.7109 6.43044 8.52251C6.42349 8.52911 6.41634 8.53633 6.40955 8.54266C6.3558 8.40715 6.24923 8.32176 6.11201 8.3088C5.91833 8.29169 5.70849 8.42348 5.63326 8.61173C5.56841 8.77368 5.60923 8.93286 5.73716 9.01712C5.82915 9.07778 5.96798 9.09688 6.14255 9.03571C6.09994 9.18544 6.02232 9.33731 5.92146 9.45477C5.83111 9.56005 5.68025 9.68149 5.4872 9.67606C5.37482 9.67165 5.28849 9.63489 5.22322 9.56352C5.06583 9.39161 5.07939 9.08048 5.07951 9.07715C5.0814 9.04122 5.06897 9.00599 5.04492 8.97921C5.02088 8.95243 4.9872 8.93628 4.95126 8.9343C4.87591 8.92633 4.81216 8.98755 4.80802 9.06255C4.80708 9.07977 4.78736 9.48868 5.02146 9.74579C5.13669 9.87255 5.28978 9.9404 5.4765 9.9477C5.4856 9.94809 5.4947 9.94821 5.50384 9.94821C5.73123 9.94821 5.95185 9.83669 6.12759 9.63188C6.2929 9.43938 6.40517 9.1779 6.43884 8.93516C6.43841 9.40016 6.15818 9.92462 5.78665 10.1557C5.62888 10.2536 5.3829 10.342 5.10583 10.2054C4.76427 10.0368 4.80498 9.64645 4.80677 9.63051C4.80899 9.6128 4.8077 9.59483 4.80297 9.57761C4.79824 9.5604 4.79017 9.54429 4.77921 9.5302C4.76825 9.51611 4.75462 9.50432 4.7391 9.4955C4.72358 9.48668 4.70648 9.481 4.68876 9.4788C4.61462 9.46977 4.54626 9.52219 4.53705 9.5968C4.534 9.6211 4.46869 10.1941 4.98556 10.4491C5.11833 10.5147 5.25716 10.5472 5.39708 10.5472C5.57681 10.5472 5.75822 10.4935 5.93017 10.3865C6.38251 10.1053 6.71083 9.49446 6.71083 8.93403C6.71061 8.83934 6.7091 8.74466 6.7063 8.65001ZM5.88669 8.79012C5.8624 8.77403 5.88138 8.7227 5.88548 8.71251C5.91412 8.64083 6.00365 8.57883 6.07517 8.57883C6.07884 8.57883 6.08255 8.57895 6.08611 8.57934C6.10349 8.58094 6.14962 8.58532 6.16947 8.68794C6.17158 8.69883 6.17337 8.70997 6.17478 8.72137C6.0233 8.81032 5.92173 8.81313 5.88669 8.79012ZM4.46865 10.0403C4.43758 10.0222 4.4006 10.0171 4.36578 10.0261C4.33096 10.0351 4.30112 10.0576 4.28279 10.0885C4.27654 10.099 4.26826 10.1104 4.25982 10.1207C4.25825 10.1171 4.25678 10.1133 4.25541 10.1096C4.19873 9.95837 4.23908 9.72544 4.25947 9.6484C4.26866 9.61358 4.26368 9.57653 4.24561 9.54538C4.22754 9.51423 4.19785 9.4915 4.16306 9.48219C4.09072 9.4636 4.0163 9.50583 3.99685 9.57833C3.98697 9.61508 3.90341 9.94508 4.00083 10.205C4.06322 10.3712 4.159 10.4132 4.22841 10.4188C4.23458 10.4193 4.24068 10.4196 4.24673 10.4196C4.39306 10.4196 4.49044 10.2722 4.51755 10.2254C4.53554 10.1944 4.54049 10.1574 4.53133 10.1228C4.52216 10.0881 4.49962 10.0584 4.46865 10.0403Z" fill="white"/>
<path id="Vector_5" d="M6.97703 7.57464C7.00644 7.57464 7.03605 7.56518 7.06089 7.54557L7.74617 7.00757C7.75562 7.00014 7.76167 6.99042 7.76859 6.98128C7.86726 6.92175 7.93406 6.81456 7.93406 6.69116C7.93406 6.50374 7.7816 6.35132 7.59421 6.35132C7.40683 6.35132 7.25437 6.5037 7.25437 6.69116C7.25437 6.79604 7.30312 6.88874 7.37796 6.95112L6.89292 7.3319C6.87068 7.34936 6.85443 7.37333 6.84646 7.40046C6.83848 7.42759 6.83917 7.45653 6.84843 7.48326C6.85769 7.50998 6.87505 7.53314 6.89811 7.54952C6.92116 7.5659 6.94875 7.57468 6.97703 7.57464ZM7.59429 6.62315C7.63179 6.62315 7.66226 6.65366 7.66226 6.69112C7.66226 6.72858 7.63179 6.75909 7.59429 6.75909C7.55679 6.75909 7.52632 6.72858 7.52632 6.69112C7.52632 6.65366 7.55679 6.62315 7.59429 6.62315ZM7.43339 7.44577C7.41646 7.44008 7.39857 7.4378 7.38076 7.43904C7.36294 7.44028 7.34554 7.44503 7.32956 7.45301C7.31358 7.46099 7.29934 7.47205 7.28764 7.48554C7.27594 7.49904 7.26703 7.51472 7.2614 7.53167C7.24687 7.57518 7.18113 7.79944 7.31437 7.93253C7.36605 7.98429 7.43402 8.01018 7.51746 8.01007C7.57324 8.01007 7.63585 7.99866 7.70523 7.97542C7.72217 7.96979 7.73783 7.96087 7.75132 7.94918C7.76481 7.93749 7.77587 7.92325 7.78385 7.90728C7.79183 7.89131 7.79658 7.87393 7.79784 7.85612C7.7991 7.83831 7.79683 7.82043 7.79117 7.8035C7.78554 7.78655 7.77662 7.77088 7.76493 7.75738C7.75323 7.74388 7.73898 7.73283 7.723 7.72485C7.70703 7.71687 7.68963 7.71212 7.67181 7.71088C7.65399 7.70963 7.63611 7.71192 7.61917 7.71761C7.54324 7.74284 7.51113 7.73874 7.5082 7.74136C7.50019 7.7212 7.50546 7.6605 7.51941 7.6171C7.53069 7.58297 7.52797 7.54576 7.51185 7.51364C7.49572 7.48152 7.4675 7.45711 7.43339 7.44577ZM8.9891 6.88386C9.00623 6.88886 9.02419 6.89044 9.04194 6.8885C9.05969 6.88656 9.07688 6.88115 9.09254 6.87257C9.10819 6.86398 9.122 6.8524 9.13318 6.83848C9.14436 6.82456 9.15269 6.80857 9.15769 6.79143L9.23699 6.5196C9.24707 6.48499 9.24301 6.4478 9.22568 6.41618C9.20836 6.38457 9.1792 6.36113 9.1446 6.351C9.11 6.34092 9.0728 6.34498 9.04119 6.36231C9.00958 6.37963 8.98613 6.40879 8.97601 6.44339L8.89671 6.71522C8.8917 6.73236 8.89012 6.75032 8.89205 6.76807C8.89398 6.78582 8.89939 6.80302 8.90797 6.81868C8.91655 6.83434 8.92813 6.84815 8.94205 6.85934C8.95597 6.87052 8.97196 6.87885 8.9891 6.88386ZM8.19679 6.86792C8.21219 6.87695 8.22922 6.88286 8.24691 6.88531C8.26459 6.88775 8.28259 6.88668 8.29986 6.88216C8.31713 6.87764 8.33334 6.86975 8.34756 6.85896C8.36178 6.84816 8.37373 6.83467 8.38273 6.81925C8.39174 6.80384 8.39763 6.78681 8.40006 6.76913C8.40249 6.75144 8.40141 6.73345 8.39689 6.71619C8.39237 6.69892 8.38448 6.68271 8.3737 6.66849C8.36291 6.65427 8.34943 6.64232 8.33402 6.63331C8.30667 6.61737 8.31039 6.57237 8.3114 6.56346C8.31546 6.52776 8.33675 6.48421 8.37378 6.47264C8.39083 6.46735 8.40666 6.45874 8.42038 6.44732C8.4341 6.4359 8.44544 6.42189 8.45374 6.40609C8.46204 6.39029 8.46715 6.37301 8.46877 6.35523C8.4704 6.33745 8.4685 6.31953 8.4632 6.30249C8.45244 6.26807 8.42848 6.23932 8.39656 6.22255C8.36464 6.20577 8.32737 6.20234 8.29292 6.213C8.15742 6.25518 8.05863 6.38065 8.04124 6.53253C8.02515 6.67386 8.08476 6.80237 8.19679 6.86792ZM7.11851 9.06987C7.08468 9.06988 7.05207 9.0825 7.02705 9.10527C7.00203 9.12804 6.9864 9.15932 6.98322 9.193C6.98003 9.22668 6.98951 9.26033 7.00981 9.28739C7.03012 9.31445 7.05978 9.33297 7.093 9.33932C7.10015 9.34979 7.11847 9.38581 7.11847 9.47765C7.11847 9.5137 7.13279 9.54827 7.15829 9.57377C7.18378 9.59926 7.21836 9.61358 7.25441 9.61358C7.29046 9.61358 7.32504 9.59926 7.35053 9.57377C7.37602 9.54827 7.39035 9.5137 7.39035 9.47765C7.39038 9.07452 7.1296 9.06987 7.11851 9.06987ZM9.4246 8.50702C9.44167 8.50983 9.45867 8.51116 9.47574 8.51116C9.58253 8.51116 9.69042 8.45729 9.7973 8.35042C9.80992 8.3378 9.81993 8.32282 9.82676 8.30633C9.83359 8.28984 9.8371 8.27217 9.8371 8.25432C9.8371 8.23648 9.83359 8.21881 9.82676 8.20232C9.81993 8.18583 9.80992 8.17085 9.7973 8.15823C9.78468 8.14561 9.7697 8.1356 9.75321 8.12877C9.73672 8.12194 9.71905 8.11843 9.70121 8.11843C9.68336 8.11843 9.66569 8.12194 9.6492 8.12877C9.63271 8.1356 9.61773 8.14561 9.60511 8.15823C9.52382 8.2396 9.48007 8.24132 9.46886 8.23878C9.44292 8.23507 9.41941 8.2012 9.41417 8.19194C9.40609 8.17603 9.39495 8.16187 9.38139 8.15027C9.36783 8.13866 9.35211 8.12984 9.33514 8.12431C9.30088 8.11314 9.26357 8.11604 9.23144 8.13237C9.19931 8.1487 9.17498 8.17713 9.16381 8.2114C9.15264 8.24567 9.15554 8.28297 9.17187 8.31511C9.18023 8.33194 9.25874 8.48007 9.4246 8.50702ZM11.7351 7.55179C11.7343 7.54981 11.7335 7.54782 11.7328 7.54581C11.7087 7.47522 11.6317 7.43682 11.5612 7.46085C11.5443 7.46647 11.5286 7.47538 11.5151 7.48707C11.5016 7.49876 11.4905 7.51299 11.4825 7.52896C11.4745 7.54493 11.4698 7.56232 11.4685 7.58013C11.4673 7.59794 11.4695 7.61583 11.4752 7.63276C11.4858 7.6646 11.5464 7.82444 11.6964 7.8446C11.7064 7.84593 11.7164 7.84659 11.7262 7.84659C11.8204 7.84659 11.9088 7.78565 11.9891 7.66511C12.0091 7.63511 12.0164 7.5984 12.0093 7.56305C12.0022 7.52771 11.9814 7.49662 11.9514 7.47663C11.9365 7.46672 11.9199 7.45984 11.9024 7.45638C11.8849 7.45291 11.8668 7.45293 11.8493 7.45644C11.8318 7.45994 11.8152 7.46686 11.8004 7.4768C11.7855 7.48674 11.7728 7.4995 11.7629 7.51436C11.7522 7.53042 11.7429 7.54265 11.7351 7.55179Z" fill="white"/>
<path id="Vector_6" d="M11.4682 10.0214C11.4682 9.44173 11.4428 8.89794 11.4074 8.42145C11.6004 8.75618 11.774 9.09442 11.8846 9.3895C11.8973 9.42326 11.9229 9.4506 11.9557 9.46551C11.9885 9.48042 12.0259 9.48168 12.0597 9.46901C12.0935 9.45634 12.1208 9.43078 12.1357 9.39795C12.1506 9.36512 12.1519 9.32771 12.1392 9.29395C11.9671 8.83528 11.6579 8.28903 11.3531 7.80411C11.2788 7.07188 11.1956 6.60712 11.1941 6.59883C11.1807 6.52493 11.1101 6.47501 11.0361 6.48942C11.0007 6.49586 10.9692 6.51611 10.9487 6.54574C10.9282 6.57536 10.9202 6.61193 10.9267 6.64739C10.9278 6.65329 10.9706 6.8927 11.0217 7.29563C10.929 7.15795 10.8347 7.02133 10.7389 6.88579L10.7455 6.8879C10.7624 6.89358 10.7803 6.89586 10.7981 6.89462C10.8159 6.89338 10.8333 6.88863 10.8493 6.88066C10.8653 6.87268 10.8795 6.86163 10.8912 6.84814C10.9029 6.83465 10.9119 6.81898 10.9175 6.80204C10.9231 6.78511 10.9254 6.76723 10.9242 6.74942C10.9229 6.73162 10.9181 6.71423 10.9102 6.69827C10.9022 6.6823 10.8911 6.66806 10.8776 6.65637C10.8641 6.64468 10.8485 6.63576 10.8315 6.63012L10.4237 6.49419C10.3963 6.4849 10.3665 6.48469 10.339 6.49358C10.3114 6.50248 10.2874 6.52002 10.2705 6.5436C10.2612 6.55649 10.2549 6.57063 10.2506 6.58528C10.1692 6.52512 10.0649 6.47618 9.9669 6.51723C9.90764 6.5418 9.83702 6.60364 9.83702 6.75907C9.83702 6.8784 9.88253 7.00743 9.93081 7.14415C10.0108 7.37087 10.061 7.53758 9.9762 7.61712C9.92936 7.66102 9.88253 7.67762 9.8369 7.6661C9.75307 7.64485 9.6701 7.53321 9.61483 7.36743C9.61241 7.36024 9.60741 7.35501 9.60397 7.34856C9.63257 7.13801 9.6201 6.88434 9.56249 6.59649C9.55904 6.57896 9.55215 6.56229 9.54223 6.54743C9.53231 6.53257 9.51955 6.51982 9.50468 6.50992C9.48981 6.50001 9.47314 6.49314 9.4556 6.4897C9.43807 6.48626 9.42003 6.48633 9.40253 6.48989C9.38502 6.49339 9.36837 6.5003 9.35354 6.51023C9.33871 6.52016 9.32597 6.53292 9.31607 6.54778C9.30617 6.56263 9.2993 6.57929 9.29584 6.59681C9.29238 6.61432 9.29241 6.63235 9.29593 6.64985C9.38468 7.09372 9.35803 7.45587 9.22471 7.61848C9.17315 7.68141 9.10854 7.71059 9.02143 7.71059C8.99389 7.71059 8.9751 7.70184 8.95639 7.68032C8.84917 7.55673 8.8496 7.15798 8.88421 6.91411C8.88694 6.89483 8.88551 6.8752 8.87999 6.85653C8.87448 6.83785 8.86503 6.82059 8.85226 6.80589C8.8395 6.79119 8.82373 6.7794 8.80602 6.77132C8.78831 6.76324 8.76906 6.75907 8.7496 6.75907C8.51573 6.75907 8.42702 7.02505 8.34878 7.25977C8.31448 7.36294 8.2505 7.55473 8.20589 7.57465C8.12362 7.57465 8.07042 7.33305 8.06995 7.16673C8.06987 7.13072 8.05551 7.09622 8.03003 7.07079C8.00454 7.04536 7.97001 7.03107 7.93401 7.03106H7.93378C7.91595 7.03107 7.89829 7.03458 7.88182 7.04141C7.86535 7.04824 7.85038 7.05825 7.83778 7.07086C7.82517 7.08347 7.81517 7.09844 7.80836 7.11492C7.80154 7.13139 7.79803 7.14905 7.79803 7.16688C7.79803 7.4804 7.90483 7.84653 8.20585 7.84653C8.42999 7.84653 8.52077 7.60231 8.59678 7.37528C8.60999 7.55579 8.65077 7.74282 8.75096 7.85833C8.82139 7.93958 8.91487 7.98243 9.02143 7.98243C9.18925 7.98243 9.33218 7.91618 9.43491 7.79087C9.45354 7.76821 9.46956 7.74215 9.48538 7.71587C9.56428 7.82809 9.66112 7.90208 9.77022 7.92962C9.80221 7.9377 9.8344 7.9418 9.86624 7.9418C9.97116 7.9418 10.0737 7.89852 10.1623 7.81528C10.1807 7.79801 10.1936 7.77907 10.2076 7.76044C10.2409 7.76993 10.2746 7.77555 10.3081 7.77555C10.4182 7.77555 10.5242 7.73122 10.59 7.68899C10.6202 7.66961 10.6415 7.63907 10.6492 7.60404C10.6569 7.569 10.6504 7.53234 10.6312 7.50208C10.6118 7.47178 10.5813 7.45033 10.5463 7.44241C10.5113 7.43448 10.4745 7.4407 10.444 7.45973C10.4428 7.46028 10.3521 7.51247 10.2901 7.50024C10.2903 7.35122 10.2364 7.19298 10.1872 7.05356C10.1592 6.97415 10.1305 6.89282 10.1169 6.82633C10.1281 6.83579 10.139 6.84559 10.1488 6.85512C10.1614 6.86775 10.1764 6.87776 10.1929 6.88459C10.2094 6.89142 10.227 6.89494 10.2449 6.89494C10.2627 6.89494 10.2804 6.89142 10.2969 6.88459C10.3134 6.87776 10.3284 6.86775 10.341 6.85512C10.3498 6.84633 10.3548 6.83567 10.3607 6.8254C10.5016 7.0195 10.7914 7.42739 11.0895 7.89755C11.1464 8.47548 11.1963 9.2127 11.1963 10.0213C11.1963 10.0391 11.1998 10.0568 11.2067 10.0733C11.2135 10.0898 11.2235 10.1048 11.2361 10.1174C11.2488 10.13 11.2637 10.1401 11.2802 10.1469C11.2967 10.1537 11.3144 10.1572 11.3323 10.1572C11.3501 10.1573 11.3678 10.1538 11.3843 10.1469C11.4008 10.1401 11.4158 10.1301 11.4284 10.1175C11.441 10.1049 11.4511 10.0899 11.4579 10.0734C11.4647 10.0569 11.4682 10.0392 11.4682 10.0214ZM11.6042 7.03094C11.6042 7.067 11.6185 7.10157 11.644 7.12707C11.6695 7.15256 11.7041 7.16688 11.7401 7.16688C11.7762 7.16688 11.8107 7.15256 11.8362 7.12707C11.8617 7.10157 11.876 7.067 11.876 7.03094C11.876 6.87098 11.7509 6.61255 11.7258 6.56235C11.7178 6.54638 11.7067 6.53215 11.6932 6.52045C11.6798 6.50876 11.6641 6.49983 11.6472 6.49419C11.6302 6.48854 11.6123 6.48629 11.5945 6.48756C11.5767 6.48882 11.5594 6.49358 11.5434 6.50157C11.5274 6.50955 11.5132 6.5206 11.5015 6.53409C11.4898 6.54758 11.4809 6.56324 11.4752 6.58017C11.4696 6.59711 11.4673 6.61499 11.4686 6.6328C11.4699 6.6506 11.4746 6.66799 11.4826 6.68395C11.5316 6.78204 11.6042 6.96005 11.6042 7.03094ZM10.9857 10.0363C10.919 10.0023 10.8371 10.0292 10.8032 10.0961C10.7879 10.1253 10.769 10.1524 10.7469 10.1768C10.7408 10.1228 10.7552 10.0149 10.7826 9.92544C10.7915 9.89641 10.7904 9.86526 10.7795 9.83693C10.7687 9.8086 10.7486 9.78471 10.7226 9.76907C10.6967 9.75341 10.6662 9.7469 10.6361 9.75058C10.606 9.75426 10.578 9.76792 10.5565 9.78938L10.2847 10.0612C10.2721 10.0738 10.2621 10.0888 10.2553 10.1053C10.2484 10.1218 10.2449 10.1395 10.2449 10.1573C10.2449 10.1752 10.2484 10.1928 10.2553 10.2093C10.2621 10.2258 10.2721 10.2408 10.2847 10.2534C10.2973 10.266 10.3123 10.276 10.3288 10.2829C10.3453 10.2897 10.363 10.2932 10.3808 10.2932C10.3987 10.2932 10.4163 10.2897 10.4328 10.2829C10.4493 10.276 10.4643 10.266 10.4769 10.2534L10.4838 10.2465C10.4956 10.3011 10.5181 10.3508 10.5566 10.3893C10.6075 10.4403 10.6691 10.4673 10.7332 10.4673C10.7456 10.4673 10.7581 10.4662 10.7706 10.4642C10.9246 10.4393 11.0204 10.2695 11.0461 10.2181C11.0622 10.186 11.0648 10.1488 11.0535 10.1147C11.0422 10.0806 11.0178 10.0524 10.9857 10.0363Z" fill="white"/>
<path id="Vector_7" d="M10.933 8.94238H9.975C9.98348 8.90855 9.99223 8.87625 10.0012 8.84563C10.3832 8.76621 10.6103 8.64289 10.677 8.47836C10.7001 8.42129 10.7242 8.30594 10.6259 8.17332C10.5373 8.05383 10.4122 8.00023 10.2823 8.02676C10.0891 8.0659 9.91703 8.27402 9.79352 8.60723C9.40977 8.67293 9.16418 8.81066 9.00867 8.94664C8.95352 8.38961 8.73727 8.05871 8.72676 8.04297C8.71687 8.02811 8.70415 8.01534 8.68932 8.0054C8.67449 7.99545 8.65785 7.98853 8.64034 7.98503C8.62284 7.98152 8.60481 7.9815 8.5873 7.98497C8.56979 7.98844 8.55313 7.99532 8.53828 8.00523C8.5083 8.02523 8.48748 8.05632 8.4804 8.09166C8.47333 8.127 8.48057 8.16371 8.50055 8.19371C8.50301 8.19742 8.74957 8.57453 8.74957 9.20574C8.74957 9.82617 8.25484 10.2932 7.93402 10.2932C7.78141 10.2932 7.71457 10.1118 7.68524 9.95832C7.99938 9.73816 8.27656 9.4834 8.33777 9.23863C8.42063 8.90742 8.31637 8.66332 8.24738 8.5018C8.24396 8.49395 8.2406 8.48607 8.23731 8.47816C8.24024 8.48082 8.24301 8.48359 8.24578 8.48625C8.27127 8.51173 8.30583 8.52604 8.34187 8.52604C8.37791 8.52604 8.41247 8.51172 8.43795 8.48623C8.46343 8.46075 8.47774 8.42618 8.47774 8.39014C8.47774 8.3541 8.46342 8.31954 8.43793 8.29406C8.35848 8.21453 8.20418 8.08961 8.06391 8.14828C8.00465 8.17285 7.93399 8.23469 7.93399 8.39012C7.93399 8.46035 7.96332 8.52895 7.99731 8.60859C8.05852 8.75184 8.13465 8.93012 8.07399 9.17273C8.03809 9.31633 7.86176 9.49051 7.62906 9.66348C7.6041 9.63363 7.56809 9.61359 7.52621 9.61359H7.52598C7.48997 9.61362 7.45545 9.62795 7.43 9.65341C7.40455 9.67888 7.39025 9.71341 7.39024 9.74941C7.39024 9.77387 7.39133 9.8 7.39289 9.82684C7.10199 10.0152 6.77281 10.1896 6.51836 10.3053C6.48604 10.3205 6.46103 10.3479 6.44872 10.3814C6.43641 10.415 6.4378 10.452 6.45259 10.4845C6.46738 10.5171 6.49439 10.5425 6.52775 10.5552C6.56112 10.568 6.59818 10.5671 6.6309 10.5528C6.70731 10.518 7.07008 10.349 7.44274 10.1181C7.51137 10.3511 7.6568 10.565 7.93395 10.565C8.26004 10.565 8.62996 10.2984 8.84348 9.90027C8.8693 9.94645 8.89968 9.98993 8.93418 10.03C9.27633 10.4246 9.94461 10.4291 9.97289 10.4291C10.0079 10.4288 10.0415 10.415 10.0666 10.3906C10.0917 10.3662 10.1065 10.333 10.1077 10.298C10.109 10.263 10.0967 10.2288 10.0734 10.2027C10.05 10.1765 10.0175 10.1604 9.98262 10.1576C9.98152 10.1575 9.8732 10.1455 9.81297 10.0752C9.7766 10.0327 9.76207 9.9743 9.76848 9.89664C9.78238 9.72914 10.3227 9.60391 10.7989 9.59652C10.8267 9.59608 10.8536 9.58719 10.8761 9.57103C10.8986 9.55488 10.9157 9.53224 10.925 9.50613L11.0609 9.12387C11.0682 9.10337 11.0704 9.08142 11.0675 9.05987C11.0645 9.03832 11.0564 9.0178 11.0438 9.00004C11.0314 8.98221 11.0148 8.96766 10.9955 8.95762C10.9762 8.94758 10.9548 8.94235 10.933 8.94238ZM10.3364 8.29328C10.3389 8.29277 10.3424 8.29195 10.3467 8.29195C10.3597 8.29195 10.3802 8.29832 10.4076 8.33523C10.4127 8.34215 10.4293 8.36574 10.4251 8.37613C10.4095 8.41461 10.3157 8.4782 10.1201 8.53582C10.2061 8.36801 10.2902 8.30258 10.3364 8.29328ZM9.51547 10.0801C9.37738 10.0352 9.23664 9.9641 9.13922 9.85141C9.03215 9.72758 8.99262 9.57094 9.01856 9.37273C9.02246 9.3623 9.03137 9.3418 9.04692 9.31512C9.23832 9.29758 9.74969 9.37305 9.78512 9.51945C9.62738 9.59996 9.51121 9.71316 9.49777 9.8741C9.49102 9.95484 9.49926 10.0232 9.51547 10.0801ZM12.4128 6.98789L12.2769 6.58008C12.255 6.51453 12.1869 6.47535 12.1195 6.4902C12.0868 6.49716 12.0578 6.51596 12.0381 6.54297C12.0184 6.56999 12.0093 6.60333 12.0127 6.6366C12.1064 7.57457 12.2839 9.40375 12.2839 9.61352C12.2839 9.80187 11.9488 10.1727 11.4075 10.4434C11.3801 10.4571 11.3581 10.4797 11.3451 10.5074C11.3321 10.5352 11.3289 10.5665 11.3359 10.5963C11.343 10.6262 11.3599 10.6527 11.384 10.6717C11.408 10.6907 11.4378 10.701 11.4684 10.7009C11.4888 10.7009 11.5096 10.6963 11.5291 10.6866C12.0236 10.4393 12.5557 9.99809 12.5557 9.61352C12.5557 9.41266 12.4168 7.96766 12.3373 7.15594C12.3686 7.14251 12.3938 7.11778 12.4078 7.08665C12.4218 7.05552 12.4236 7.02027 12.4128 6.98789ZM13.547 8.21445C13.568 8.23552 13.5954 8.24909 13.6249 8.25307C13.6544 8.25705 13.6844 8.25122 13.7103 8.23648C13.7362 8.22173 13.7565 8.19891 13.7682 8.17151C13.7798 8.1441 13.7822 8.11363 13.7748 8.08477C13.7505 7.98922 13.7424 7.86973 13.7553 7.8209C13.8234 7.82301 13.8866 7.77457 13.8966 7.70434C13.8991 7.68666 13.8981 7.66867 13.8937 7.65137C13.8893 7.63408 13.8815 7.61782 13.8708 7.60354C13.8601 7.58925 13.8466 7.57722 13.8313 7.56812C13.8159 7.55902 13.7989 7.55304 13.7813 7.55051C13.6914 7.53832 13.6125 7.56469 13.5573 7.62602C13.5216 7.66586 13.5004 7.71695 13.4889 7.77191L13.3314 7.61449C13.306 7.58901 13.2714 7.57469 13.2354 7.57469C13.1993 7.57469 13.1647 7.58901 13.1393 7.61449C13.1138 7.63998 13.0995 7.67454 13.0995 7.71059C13.0995 7.74663 13.1138 7.78119 13.1393 7.80668L13.547 8.21445ZM13.8528 8.35621L13.343 8.72152C13.3285 8.73192 13.3162 8.74507 13.3068 8.76024C13.2974 8.7754 13.291 8.79226 13.2881 8.80988C13.2852 8.82749 13.2858 8.84551 13.2898 8.86289C13.2939 8.88028 13.3013 8.8967 13.3117 8.91121C13.3243 8.92879 13.3409 8.9431 13.3602 8.95296C13.3794 8.96282 13.4008 8.96794 13.4224 8.96789C13.4498 8.96789 13.4775 8.95965 13.5014 8.94242L14.0112 8.57711C14.0405 8.5561 14.0602 8.52432 14.0661 8.48875C14.072 8.45318 14.0635 8.41674 14.0425 8.38742C13.9987 8.32633 13.9136 8.31211 13.8528 8.35621ZM13.8076 8.86738C13.7872 8.89367 13.7771 8.92656 13.7793 8.95979C13.7815 8.99302 13.7958 9.02428 13.8195 9.04766C13.8254 9.0575 13.8519 9.10949 13.8471 9.24332C13.8464 9.26116 13.8493 9.27895 13.8556 9.29568C13.8618 9.31241 13.8713 9.32774 13.8834 9.34081C13.8956 9.35387 13.9102 9.36442 13.9265 9.37183C13.9427 9.37925 13.9602 9.38339 13.9781 9.38402C13.9797 9.38414 13.9814 9.38414 13.983 9.38414C14.0182 9.38411 14.052 9.37045 14.0773 9.34602C14.1027 9.32159 14.1175 9.28829 14.1188 9.25312C14.1287 8.9757 14.0379 8.8743 13.9984 8.84359C13.9843 8.83262 13.9682 8.82453 13.951 8.81979C13.9338 8.81505 13.9158 8.81374 13.8981 8.81595C13.8804 8.81816 13.8633 8.82384 13.8477 8.83267C13.8322 8.84149 13.8186 8.85329 13.8076 8.86738Z" fill="white"/>
<path id="Vector_8" d="M14.9939 9.86836C15.0117 9.86836 15.0294 9.86485 15.0459 9.85802C15.0624 9.85119 15.0774 9.84118 15.09 9.82855C15.1026 9.81593 15.1126 9.80094 15.1195 9.78445C15.1263 9.76795 15.1298 9.75027 15.1298 9.73242C15.1298 9.53187 15.1195 9.30797 15.1027 9.07504C15.2375 9.2959 15.3494 9.49953 15.4212 9.66699C15.4282 9.68342 15.4384 9.69831 15.4512 9.71079C15.4639 9.72328 15.479 9.73312 15.4956 9.73976C15.5122 9.74639 15.5299 9.74969 15.5478 9.74945C15.5657 9.74922 15.5833 9.74546 15.5997 9.7384C15.6328 9.7242 15.6589 9.69743 15.6723 9.66397C15.6857 9.63051 15.6852 9.59311 15.671 9.56C15.5466 9.26957 15.314 8.88488 15.0491 8.48773C14.9958 7.98883 14.9261 7.49996 14.872 7.1493C14.9019 7.15216 14.9318 7.14471 14.9569 7.12816C14.9998 7.10066 15.0199 7.05289 15.017 7.00535C15.0205 7.01871 15.0243 7.03211 15.0321 7.04441C15.033 7.04574 15.1204 7.19 15.0816 7.37722C15.0747 7.41239 15.0819 7.44886 15.1018 7.47871C15.1216 7.50856 15.1524 7.52937 15.1875 7.53661C15.2226 7.54386 15.2591 7.53695 15.2892 7.51739C15.3192 7.49784 15.3403 7.46721 15.3479 7.43219C15.4092 7.13523 15.2675 6.90801 15.2615 6.89844C15.242 6.86809 15.2114 6.84667 15.1762 6.83885C15.141 6.83104 15.1042 6.83748 15.0737 6.85676C15.0306 6.88422 15.0102 6.93203 15.013 6.97969C15.0095 6.96625 15.0056 6.95273 14.9977 6.94043L14.7683 6.58363C14.7513 6.55722 14.7257 6.53749 14.6958 6.52781C14.666 6.51813 14.6337 6.51908 14.6044 6.53052C14.5752 6.54195 14.5508 6.56315 14.5354 6.59052C14.52 6.61789 14.5146 6.64974 14.52 6.68066C14.522 6.69137 14.6258 7.28785 14.7179 8.0068C14.6161 7.86307 14.5129 7.72028 14.4084 7.57844C14.392 7.37277 14.3756 7.18265 14.3613 7.02543C14.3803 7.01978 14.3979 7.01003 14.4128 6.99686C14.4276 6.98369 14.4394 6.96743 14.4473 6.94921C14.4553 6.93099 14.4591 6.91126 14.4585 6.89141C14.458 6.87155 14.4531 6.85206 14.4442 6.8343L14.3083 6.56246C14.2941 6.53405 14.2703 6.51151 14.2412 6.49875C14.2121 6.486 14.1795 6.48383 14.149 6.49262C14.1184 6.50147 14.092 6.52073 14.0741 6.54706C14.0563 6.57339 14.0483 6.60512 14.0515 6.63676C14.0677 6.79898 14.0845 6.97855 14.1011 7.16719C14.0237 7.06516 13.9459 6.96351 13.8675 6.86226C13.8845 6.84766 13.8976 6.82908 13.9057 6.80817C13.9138 6.78727 13.9166 6.76469 13.9138 6.74245C13.9111 6.7202 13.9029 6.69898 13.8899 6.68068C13.877 6.66238 13.8597 6.64756 13.8397 6.63754L13.5679 6.5016C13.5401 6.48779 13.5085 6.48384 13.4782 6.49041C13.448 6.49698 13.4208 6.51367 13.4013 6.53773C13.3819 6.56185 13.3712 6.59189 13.3711 6.62288C13.3711 6.65387 13.3816 6.68396 13.4009 6.70816C13.4083 6.7173 13.743 7.13683 14.1433 7.67832C14.2128 8.57641 14.259 9.51066 14.1937 9.70652C14.1818 9.74238 14.1609 9.78457 14.1413 9.78605C14.0592 9.79746 13.8631 9.61379 13.7646 9.41691C13.7079 9.30355 13.6262 9.29176 13.5825 9.29371C13.4365 9.30273 13.3795 9.46348 13.2759 9.75527C13.2016 9.96433 13.1093 10.2243 13.0057 10.3306C12.9496 10.262 12.877 10.0319 12.8367 9.79543C12.8556 9.84769 12.9046 9.88551 12.9634 9.88551C12.9813 9.88552 12.9989 9.88201 13.0154 9.87518C13.0319 9.86836 13.0469 9.85835 13.0595 9.84573C13.0722 9.83311 13.0822 9.81812 13.089 9.80163C13.0958 9.78514 13.0993 9.76746 13.0993 9.74961C13.0993 9.54687 12.9576 8.00308 12.8784 7.15703C12.9105 7.14409 12.9364 7.1194 12.9509 7.088C12.9654 7.0566 12.9674 7.02085 12.9565 6.98805L12.8205 6.58023C12.8099 6.54862 12.788 6.522 12.7591 6.50545C12.7301 6.4889 12.6961 6.48357 12.6635 6.49047C12.6308 6.49737 12.6019 6.51602 12.5821 6.54288C12.5623 6.56974 12.5531 6.60292 12.5562 6.63613C12.6486 7.60582 12.8218 9.47879 12.8272 9.7373C12.8268 9.73496 12.8264 9.73269 12.8261 9.73035C12.8155 9.65601 12.7461 9.60504 12.6723 9.615C12.6366 9.62013 12.6044 9.63922 12.5828 9.66806C12.5612 9.6969 12.5519 9.73314 12.557 9.76883C12.5966 10.0467 12.6981 10.5244 12.9317 10.6022C12.9501 10.6084 12.975 10.614 13.0041 10.614C13.0577 10.614 13.1258 10.595 13.1954 10.5253C13.3434 10.3773 13.4436 10.0951 13.532 9.84621C13.552 9.78992 13.5757 9.72328 13.5979 9.66621C13.7226 9.84832 13.9402 10.075 14.1607 10.0573C14.2382 10.0518 14.3791 10.0101 14.4516 9.79262C14.5239 9.57578 14.4954 8.81957 14.4466 8.09555C14.5616 8.25644 14.6745 8.41885 14.7852 8.58273C14.8276 8.9898 14.858 9.39762 14.858 9.73258C14.858 9.7686 14.8723 9.80314 14.8978 9.82861C14.9233 9.85407 14.9578 9.86837 14.9939 9.86836Z" fill="white"/>
<path id="Vector_9" d="M16.0254 9.15348C15.9291 8.43614 15.795 7.60516 15.71 7.09516C15.7296 7.09997 15.75 7.1003 15.7697 7.09611C15.7895 7.09192 15.808 7.08333 15.8239 7.07098C15.8381 7.06016 15.85 7.04665 15.859 7.03122C15.868 7.01579 15.8738 6.99874 15.8762 6.98105C15.8786 6.96336 15.8774 6.94537 15.8729 6.92812C15.8683 6.91087 15.8603 6.89469 15.8495 6.88051L15.6031 6.55766C15.5846 6.53353 15.5586 6.51629 15.5291 6.5087C15.4997 6.50111 15.4685 6.50361 15.4407 6.51579C15.4128 6.52797 15.3898 6.54914 15.3754 6.57591C15.361 6.60268 15.356 6.63351 15.3611 6.66348C15.3636 6.67739 15.606 8.07278 15.7559 9.18957C15.8132 9.61633 15.7296 9.99774 15.5321 10.2096C15.4052 10.3457 15.237 10.4072 15.0335 10.3954C14.9588 10.3914 14.894 10.4477 14.8893 10.5225C14.8846 10.5974 14.9414 10.662 15.0164 10.6667C15.039 10.6681 15.0617 10.6688 15.0844 10.6688C15.3407 10.6688 15.5632 10.5748 15.7309 10.3948C15.9872 10.1201 16.0945 9.66758 16.0254 9.15348ZM14.5301 10.0495C14.4801 10.1038 14.4839 10.1893 14.5368 10.2405C14.5442 10.2477 14.553 10.2618 14.553 10.2687C14.5531 10.2725 14.5476 10.2839 14.5325 10.2991C14.5135 10.3181 14.5005 10.3423 14.4952 10.3687C14.49 10.395 14.4927 10.4224 14.5029 10.4472C14.5132 10.4721 14.5307 10.4933 14.5531 10.5083C14.5754 10.5232 14.6017 10.5311 14.6286 10.5311C14.6634 10.5311 14.6982 10.5178 14.7248 10.4913C14.811 10.4051 14.8268 10.3176 14.8248 10.2593C14.8207 10.1339 14.7352 10.0529 14.7182 10.0379C14.6626 9.98965 14.58 9.99547 14.5301 10.0495ZM14.0509 13.0305H13.0994V12.8945C13.0994 12.8585 13.0851 12.8239 13.0596 12.7984C13.0341 12.7729 12.9995 12.7586 12.9635 12.7586C12.9274 12.7586 12.8928 12.7729 12.8674 12.7984C12.8419 12.8239 12.8275 12.8585 12.8275 12.8945V13.0305H5.62332C5.89516 13.3023 6.43887 13.4383 6.84668 13.4383H12.8275V13.7101C12.8275 13.728 12.8311 13.7456 12.8379 13.7621C12.8447 13.7786 12.8547 13.7936 12.8674 13.8062C12.88 13.8189 12.895 13.8289 12.9115 13.8357C12.9279 13.8425 12.9456 13.8461 12.9635 13.8461H14.0509C14.2758 13.8461 14.4587 13.6631 14.4587 13.4382C14.4587 13.2134 14.2758 13.0305 14.0509 13.0305ZM14.0509 13.5742H13.0994V13.4382H14.1868L14.1624 13.3651C14.1765 13.3865 14.1868 13.4107 14.1868 13.4382C14.1868 13.4743 14.1725 13.5088 14.147 13.5343C14.1215 13.5598 14.0869 13.5742 14.0509 13.5742Z" fill="white"/>
</g>
</g>
</svg>
