<svg width="21" height="21" viewBox="0 0 21 21" fill="none" xmlns="http://www.w3.org/2000/svg">
<g id="Frame" clip-path="url(#clip0_645_4568)">
<g id="Group">
<path id="Vector" d="M18.5283 17.9142V20.3851C18.5283 20.7251 18.2526 21.0004 17.9129 21.0004H3.08606C2.74638 21.0004 2.4707 20.7251 2.4707 20.3851V17.9142C2.4707 17.5741 2.74638 17.2988 3.08606 17.2988H17.9129C18.2526 17.2988 18.5283 17.5741 18.5283 17.9142Z" fill="#E570B0"/>
<path id="Vector_2" d="M18.5288 17.9142V20.3851C18.5288 20.7251 18.2531 21.0004 17.9134 21.0004H10.5V17.2988H17.9134C18.2531 17.2988 18.5288 17.5741 18.5288 17.9142Z" fill="#E570B0"/>
<path id="Vector_3" d="M20.9993 9.57337V17.9135C20.9993 18.2532 20.7237 18.5289 20.384 18.5289H0.615359C0.275681 18.5289 0 18.2532 0 17.9135V9.57337C0 9.23369 0.275681 8.95801 0.615359 8.95801H2.47087L10.2773 9.97458C10.632 9.93069 18.1479 9.0049 18.5285 8.95801H20.384C20.7237 8.95801 20.9993 9.23369 20.9993 9.57337Z" fill="#B9499B"/>
<path id="Vector_4" d="M18.5283 8.95801V12.0447C18.5283 12.3843 18.2526 12.66 17.9129 12.66H16.057L10.7383 11.9782C3.88459 12.7786 5.60789 12.66 3.08606 12.66C2.74638 12.66 2.4707 12.3843 2.4707 12.0447V8.95801H18.5283Z" fill="#E570B0"/>
<path id="Vector_5" d="M18.5288 8.95801V12.0447C18.5288 12.3843 18.2531 12.66 17.9134 12.66H16.0575C10.0352 11.888 10.8394 11.9664 10.5 12.0061V8.95801H18.5288Z" fill="#E570B0"/>
<path id="Vector_6" d="M16.0574 0.615998V12.6602H4.94238V0.615998C4.94238 0.186518 5.37166 -0.110454 5.77394 0.0396116L7.81242 0.804421C7.95195 0.856691 8.10569 0.856633 8.24518 0.804257C10.4513 -0.0242216 10.3468 0.000638892 10.4999 0.000638892C10.6548 0.000638892 10.5531 -0.0225396 12.7546 0.804216C12.8941 0.856592 13.0478 0.85665 13.1874 0.80438L15.2259 0.0395706C15.6264 -0.1107 16.0574 0.185493 16.0574 0.615998Z" fill="white"/>
<g id="Group 1000005046">
<path id="Vector_7" d="M13.5854 4.32239C13.5854 4.66248 13.3097 4.93775 12.97 4.93775H8.02747C7.68779 4.93775 7.41211 4.66248 7.41211 4.32239C7.41211 3.98271 7.68779 3.70703 8.02747 3.70703H12.97C13.3097 3.70703 13.5854 3.98271 13.5854 4.32239Z" fill="#FCA7C8"/>
<path id="Vector_8" d="M12.9713 4.93775H10.5V3.70703H12.9713C13.311 3.70703 13.5866 3.98271 13.5866 4.32239C13.5866 4.66248 13.311 4.93775 12.9713 4.93775Z" fill="#FCA7C8"/>
<path id="Vector_9" d="M13.5854 6.79309C13.5854 7.13273 13.3097 7.40845 12.97 7.40845H8.02747C7.68779 7.40845 7.41211 7.13273 7.41211 6.79309C7.41211 6.45301 7.68779 6.17773 8.02747 6.17773H12.97C13.3097 6.17773 13.5854 6.45301 13.5854 6.79309Z" fill="#FCA7C8"/>
<path id="Vector_10" d="M13.5866 6.79309C13.5866 7.13273 13.311 7.40845 12.9713 7.40845H10.5V6.17773H12.9713C13.311 6.17773 13.5866 6.45301 13.5866 6.79309Z" fill="#FCA7C8"/>
<path id="Vector_11" d="M13.5854 9.2638C13.5854 9.60389 13.3097 9.87916 12.97 9.87916H8.02747C7.68779 9.87916 7.41211 9.60389 7.41211 9.2638C7.41211 8.92412 7.68779 8.64844 8.02747 8.64844H12.97C13.3097 8.64844 13.5854 8.92412 13.5854 9.2638Z" fill="#FCA7C8"/>
<path id="Vector_12" d="M13.5866 9.2638C13.5866 9.60389 13.311 9.87916 12.9713 9.87916H10.5V8.64844H12.9713C13.311 8.64844 13.5866 8.92412 13.5866 9.2638Z" fill="#FCA7C8"/>
</g>
<path id="Vector_13" d="M5.86601 16.0579H3.08606C2.74622 16.0579 2.4707 15.7824 2.4707 15.4425C2.4707 15.1027 2.74622 14.8271 3.08606 14.8271H5.86605C6.20589 14.8271 6.48141 15.1027 6.48141 15.4425C6.48141 15.7824 6.20589 16.0579 5.86601 16.0579Z" fill="#8CC541"/>
<path id="Vector_14" d="M8.33704 16.0579C8.67689 16.0579 8.9524 15.7824 8.9524 15.4425C8.9524 15.1027 8.67689 14.8271 8.33704 14.8271C7.99719 14.8271 7.72168 15.1027 7.72168 15.4425C7.72168 15.7824 7.99719 16.0579 8.33704 16.0579Z" fill="#8CC541"/>
<path id="Vector_15" d="M11.1202 16.0579C11.4601 16.0579 11.7356 15.7824 11.7356 15.4425C11.7356 15.1027 11.4601 14.8271 11.1202 14.8271C10.7804 14.8271 10.5049 15.1027 10.5049 15.4425C10.5049 15.7824 10.7804 16.0579 11.1202 16.0579Z" fill="#8CC541"/>
</g>
</g>
<defs>
<clipPath id="clip0_645_4568">
<rect width="21" height="21" fill="white"/>
</clipPath>
</defs>
</svg>
