<svg width="40" height="40" viewBox="0 0 40 40" fill="none" xmlns="http://www.w3.org/2000/svg">
<g id="attach">
<path id="Vector" d="M20 40C31.0457 40 40 31.0457 40 20C40 8.9543 31.0457 0 20 0C8.9543 0 0 8.9543 0 20C0 31.0457 8.9543 40 20 40Z" fill="#B9499B"/>
<path id="Vector_2" d="M30.9729 9.00331C29.681 7.71148 27.9576 7 26.1198 7C24.282 7 22.5585 7.71148 21.2667 9.00331L7 23.27L8.57953 24.8495L22.8462 10.5828C23.7162 9.71278 24.8788 9.23372 26.1198 9.23372C27.3608 9.23372 28.5234 9.71278 29.3933 10.5828C30.2633 11.4527 30.7423 12.6152 30.7423 13.8562C30.7423 15.0972 30.2633 16.2598 29.3933 17.1298L29.3637 17.1595L16.5462 29.9769C16.0373 30.4859 15.3567 30.7661 14.6298 30.7661C13.9028 30.7661 13.2222 30.4859 12.7133 29.9769C12.2044 29.4679 11.9241 28.7873 11.9241 28.0605C11.9241 27.3335 12.2044 26.6529 12.7133 26.144L20.7056 18.1517L25.3366 13.5207C25.6557 13.2015 26.175 13.2016 26.4941 13.5207C26.6472 13.6738 26.7315 13.8793 26.7315 14.0995C26.7315 14.3196 26.6472 14.525 26.4941 14.6782L14.5101 26.6622L16.0897 28.2417L28.0735 16.2578C28.6486 15.6828 28.9652 14.9163 28.9652 14.0996C28.9652 13.2826 28.6486 12.5162 28.0735 11.9412C27.4985 11.3662 26.732 11.0496 25.9152 11.0496C25.0984 11.0496 24.3318 11.3663 23.7569 11.9412L23.4628 12.2353L19.1261 16.5721L11.1337 24.5644C10.2028 25.4952 9.69015 26.7368 9.69015 28.0604C9.69015 29.384 10.2028 30.6256 11.1337 31.5564C12.0645 32.4873 13.3062 33 14.6298 33C15.9533 33 17.1949 32.4873 18.1258 31.5564L20.0785 29.6038L30.9728 18.7095C32.2646 17.4176 32.9761 15.6941 32.9761 13.8564C32.9761 12.0186 32.2647 10.2951 30.9729 9.00331Z" fill="white"/>
</g>
</svg>
