<svg width="20" height="20" viewBox="0 0 20 20" fill="none" xmlns="http://www.w3.org/2000/svg">
<g id="Frame" clip-path="url(#clip0_886_46896)">
<g id="Group">
<path id="Vector" d="M10 0C4.47734 0 0 4.47578 0 10C0 15.5242 4.47734 20 10 20C15.5227 20 20 15.5215 20 10C20 4.47852 15.5227 0 10 0Z" fill="#39B54A"/>
<path id="Vector_2" d="M1.65734e-06 10C-0.00225573 11.6529 0.40706 13.2804 1.19102 14.7356C2.1898 15.0288 3.22547 15.1773 4.26641 15.1766C10.2781 15.1766 15.1516 10.3031 15.1516 4.29142C15.1525 3.23398 14.9993 2.18204 14.6969 1.16876C13.2512 0.398733 11.6379 -0.00271381 10 1.38071e-05C4.47735 1.38071e-05 1.65734e-06 4.4758 1.65734e-06 10Z" fill="#39B54A"/>
<path id="Vector_3" d="M15.7031 8.34289L9.69258 14.655C9.52878 14.8268 9.33198 14.9638 9.11397 15.0578C8.89596 15.1518 8.66123 15.2008 8.42383 15.2019H8.41602C8.17994 15.2019 7.94626 15.1546 7.72885 15.0626C7.51143 14.9706 7.31472 14.8358 7.15039 14.6663L3.96094 11.3812C3.79614 11.2158 3.66584 11.0193 3.5776 10.8031C3.48936 10.5869 3.44493 10.3553 3.4469 10.1218C3.44887 9.88836 3.49719 9.65758 3.58906 9.44292C3.68093 9.22826 3.81453 9.03398 3.98209 8.87136C4.14964 8.70874 4.34783 8.58102 4.56515 8.49561C4.78247 8.4102 5.01458 8.36881 5.24802 8.37383C5.48147 8.37885 5.71159 8.43018 5.92503 8.52485C6.13848 8.61952 6.33099 8.75564 6.49141 8.92531L8.40352 10.8948L13.1492 5.91125C13.3082 5.74079 13.4994 5.60353 13.7118 5.50743C13.9241 5.41133 14.1534 5.35828 14.3864 5.35136C14.6194 5.34444 14.8514 5.38379 15.0691 5.46712C15.2868 5.55045 15.4858 5.67612 15.6546 5.83685C15.8234 5.99758 15.9587 6.19018 16.0526 6.40352C16.1465 6.61686 16.1972 6.8467 16.2017 7.07975C16.2062 7.3128 16.1645 7.54443 16.0789 7.76124C15.9933 7.97806 15.8656 8.17575 15.7031 8.34289Z" fill="white"/>
</g>
</g>
<defs>
<clipPath id="clip0_886_46896">
<rect width="20" height="20" fill="white"/>
</clipPath>
</defs>
</svg>
