<svg width="20" height="20" viewBox="0 0 20 20" fill="none" xmlns="http://www.w3.org/2000/svg">
<circle cx="10" cy="10" r="10" fill="#00689D"/>
<path fill-rule="evenodd" clip-rule="evenodd" d="M8.61918 14.2257L13.2436 8.24548C13.4949 7.92299 13.5843 7.55014 13.5005 7.17051C13.4279 6.82539 13.2157 6.49724 12.8973 6.2483L12.121 5.6316C11.4452 5.09411 10.6075 5.15069 10.1271 5.76739L9.60774 6.44122C9.54071 6.52553 9.55747 6.65 9.64124 6.71789C9.64124 6.71789 10.9537 7.77023 10.9817 7.79286C11.071 7.87773 11.138 7.99088 11.1548 8.12667C11.1827 8.39258 10.9984 8.64152 10.7247 8.67547C10.5963 8.69244 10.4734 8.65284 10.3841 8.57929L9.00455 7.48169C8.93753 7.43133 8.837 7.44208 8.78115 7.50997L5.50273 11.7533C5.2905 12.0192 5.21789 12.3643 5.2905 12.6981L5.70938 14.5143C5.73172 14.6105 5.81549 14.6783 5.91602 14.6783L7.75909 14.6557C8.09419 14.6501 8.40695 14.4973 8.61918 14.2257ZM11.1999 13.6601H14.2052C14.4984 13.6601 14.7369 13.9017 14.7369 14.1987C14.7369 14.4963 14.4984 14.7374 14.2052 14.7374H11.1999C10.9066 14.7374 10.6682 14.4963 10.6682 14.1987C10.6682 13.9017 10.9066 13.6601 11.1999 13.6601Z" fill="white"/>
</svg>
