<svg width="104" height="130" viewBox="0 0 104 130" fill="none" xmlns="http://www.w3.org/2000/svg">
<g id="Frame" clip-path="url(#clip0_74_2627)">
<g id="Group">
<path id="Vector" d="M98.132 21.3842L80.2204 4.82537C76.9735 1.74088 72.6985 0.0633545 68.2071 0.0633545H17.9353C8.19485 0.0633545 0.240112 8.01809 0.240112 17.7586V112.241C0.240112 121.982 8.19485 129.937 17.9353 129.937H86.0646C95.8051 129.937 103.76 121.982 103.76 112.241V34.3715C103.76 29.4472 101.704 24.7393 98.132 21.3842ZM34.3318 44.5449C48.9588 29.9125 48.4555 30.3509 48.9967 29.9883C49.8757 29.3936 50.9116 29.0734 51.9729 29.0684H52.027C53.434 29.0684 54.7869 29.6636 55.815 30.6377L69.6682 44.5449C70.68 45.5567 71.2484 46.929 71.2484 48.3599C71.2484 49.7909 70.68 51.1632 69.6682 52.175C68.6563 53.1868 67.284 53.7552 65.8531 53.7552C64.4222 53.7552 63.0499 53.1868 62.0381 52.175L57.4384 47.5753V66.6775C57.4384 69.7079 55.0033 72.0889 52.027 72.0889C48.9967 72.0889 46.6157 69.7079 46.6157 66.6775V47.5753L41.9619 52.2291C40.9459 53.233 39.5752 53.7961 38.1468 53.7961C36.7185 53.7961 35.3478 53.233 34.3318 52.2291C32.2214 50.1186 32.2214 46.6554 34.3318 44.5449ZM72.9691 100.932H31.0309C28.0546 100.932 25.6195 98.4964 25.6195 95.5201C25.6195 92.5439 28.0546 90.1088 31.0309 90.1088H72.9691C75.9454 90.1088 78.3805 92.5439 78.3805 95.5201C78.3805 98.4964 75.9454 100.932 72.9691 100.932Z" fill="#DFDFE0"/>
</g>
</g>
<defs>
<clipPath id="clip0_74_2627">
<rect width="104" height="130" fill="white"/>
</clipPath>
</defs>
</svg>
