<svg width="24" height="24" viewBox="0 0 24 24" fill="none" xmlns="http://www.w3.org/2000/svg">
<g id="Frame" clip-path="url(#clip0_348_17322)">
<g id="Group">
<path id="Vector" d="M12 0C5.3732 0 0 5.3725 0 12C0 18.6275 5.3732 24 12 24C18.6282 24 24 18.6275 24 12C24 5.3725 18.6282 0 12 0ZM16.4286 8.00374C16.876 8.01651 17.3008 8.20321 17.6127 8.52417C17.9246 8.84513 18.0991 9.27506 18.0991 9.72263C18.0991 10.1702 17.9246 10.6001 17.6127 10.9211C17.3008 11.242 16.876 11.4287 16.4286 11.4415C15.9812 11.4287 15.5565 11.242 15.2445 10.9211C14.9326 10.6001 14.7581 10.1702 14.7581 9.72263C14.7581 9.27506 14.9326 8.84513 15.2445 8.52417C15.5565 8.20321 15.9812 8.01651 16.4286 8.00374ZM7.57069 8.00374C8.02666 8.00374 8.46395 8.18487 8.78637 8.50729C9.10879 8.82971 9.28993 9.26701 9.28993 9.72298C9.28993 10.1789 9.10879 10.6162 8.78637 10.9387C8.46395 11.2611 8.02666 11.4422 7.57069 11.4422C7.11471 11.4422 6.67742 11.2611 6.355 10.9387C6.03258 10.6162 5.85145 10.1789 5.85145 9.72298C5.85145 9.26701 6.03258 8.82971 6.355 8.50729C6.67742 8.18487 7.11471 8.00374 7.57069 8.00374ZM18.4747 16.1721C17.7525 17.2224 16.7858 18.0815 15.6579 18.6752C14.53 19.2689 13.2747 19.5796 12 19.5805C10.7252 19.58 9.46965 19.2694 8.34165 18.6755C7.21364 18.0816 6.24706 17.2222 5.52526 16.1714C5.36729 15.9417 5.30704 15.6587 5.35776 15.3846C5.40849 15.1104 5.56603 14.8677 5.79574 14.7097C6.02544 14.5518 6.30849 14.4915 6.58262 14.5422C6.85674 14.593 7.09949 14.7505 7.25746 14.9802C8.33378 16.5449 10.1073 17.4783 12.0007 17.4783C13.8941 17.4783 15.6662 16.5449 16.7453 14.9802C16.9037 14.7509 17.1464 14.5937 17.4204 14.5432C17.6945 14.4926 17.9773 14.5527 18.2071 14.7104C18.6829 15.0398 18.8034 15.6935 18.4747 16.1721Z" fill="#B9499B"/>
</g>
</g>
<defs>
<clipPath id="clip0_348_17322">
<rect width="24" height="24" fill="white"/>
</clipPath>
</defs>
</svg>
