<svg width="10" height="11" viewBox="0 0 10 11" fill="none" xmlns="http://www.w3.org/2000/svg">
<g id="Location">
<path id="Location_2" fill-rule="evenodd" clip-rule="evenodd" d="M0.75 4.65888C0.75 2.35895 2.67194 0.5 4.99672 0.5C7.32806 0.5 9.25 2.35895 9.25 4.65888C9.25 5.81785 8.8285 6.89381 8.13475 7.80579C7.3694 8.81176 6.42608 9.68823 5.36427 10.3762C5.12126 10.5352 4.90194 10.5472 4.63522 10.3762C3.56737 9.68823 2.62404 8.81176 1.86525 7.80579C1.17099 6.89381 0.75 5.81785 0.75 4.65888ZM3.59711 4.78838C3.59711 5.55885 4.22583 6.16483 4.99672 6.16483C5.76812 6.16483 6.40289 5.55885 6.40289 4.78838C6.40289 4.0239 5.76812 3.38842 4.99672 3.38842C4.22583 3.38842 3.59711 4.0239 3.59711 4.78838Z" fill="#B9499B"/>
</g>
</svg>
