<svg width="29" height="34" viewBox="0 0 29 34" fill="none" xmlns="http://www.w3.org/2000/svg">
<g id="Location">
<path id="Location_2" fill-rule="evenodd" clip-rule="evenodd" d="M0.333008 14.1969C0.333008 6.53047 6.73948 0.333984 14.4888 0.333984C22.2599 0.333984 28.6663 6.53047 28.6663 14.1969C28.6663 18.0601 27.2614 21.6467 24.9488 24.6866C22.3977 28.0398 19.2533 30.9614 15.7139 33.2547C14.9039 33.7847 14.1728 33.8247 13.2838 33.2547C9.72423 30.9614 6.57982 28.0398 4.05051 24.6866C1.73631 21.6467 0.333008 18.0601 0.333008 14.1969ZM9.82339 14.6286C9.82339 17.1968 11.9191 19.2168 14.4888 19.2168C17.0601 19.2168 19.176 17.1968 19.176 14.6286C19.176 12.0803 17.0601 9.96204 14.4888 9.96204C11.9191 9.96204 9.82339 12.0803 9.82339 14.6286Z" fill="#B9499B"/>
</g>
</svg>
