<svg width="41" height="45" viewBox="0 0 41 45" fill="none" xmlns="http://www.w3.org/2000/svg">
<g id="Frame" clip-path="url(#clip0_596_50809)">
<g id="Group" filter="url(#filter0_d_596_50809)">
<path id="Vector" d="M5.43604 28.8421H4.0013C2.02045 28.8421 0.414673 27.2423 0.414673 25.2689C0.414673 24.0849 1.37817 23.125 2.56665 23.125H5.43596L5.43604 28.8421Z" fill="#BD4150"/>
<path id="Vector_2" d="M32.6946 0.257812H6.15336L5.41449 1.68708V43.8732H39.1506L40.5853 43.1362V8.11888L32.6946 0.257812Z" fill="white"/>
<path id="Vector_3" d="M6.15334 40.9923V0.257813C5.36105 0.257813 4.71869 0.897678 4.71869 1.68708V43.1362C4.71869 43.9256 5.36105 44.5655 6.15334 44.5655H39.1506C39.9429 44.5655 40.5853 43.9256 40.5853 43.1362H8.30532C7.11675 43.1362 6.15334 42.1763 6.15334 40.9923ZM40.5853 7.99617C40.5853 7.61713 40.4341 7.25358 40.165 6.98549L33.8319 0.676399C33.5629 0.408385 33.198 0.257816 32.8175 0.257812L32.6946 0.257813V7.40425C32.6946 7.59378 32.7702 7.77555 32.9047 7.90957C33.0392 8.04359 33.2217 8.11888 33.4119 8.11888H40.5853V7.99617Z" fill="#F1F1F1"/>
<path id="Vector_4" d="M24.8039 27.4151H2.56665C2.31509 27.4151 2.07352 27.3721 1.84906 27.293L1.15814 28.4414V37.4702C1.15814 38.6543 2.12164 39.6141 3.31012 39.6141H24.8039L26.2386 38.8492V28.8443C26.2386 28.0549 25.5963 27.4151 24.8039 27.4151Z" fill="#E15F78"/>
<path id="Vector_5" d="M1.84933 27.2914C1.01543 26.9961 0.414673 26.2017 0.414673 25.2695V38.133C0.414673 39.3171 1.37817 40.2769 2.56665 40.2769H24.8039C25.5962 40.2769 26.2386 39.637 26.2386 38.8477H4.0013C2.81283 38.8477 1.84933 37.8878 1.84933 36.7038V27.2914Z" fill="#DB4655"/>
<g id="Group_2">
<path id="Vector_6" d="M20.8867 33.0782H19.4786V31.7236H21.0702C21.4668 31.7236 21.7876 31.4036 21.7876 31.009C21.7876 30.6144 21.4667 30.2944 21.0702 30.2944H18.7613C18.6671 30.2944 18.5738 30.3128 18.4868 30.3487C18.3997 30.3846 18.3206 30.4373 18.254 30.5036C18.1874 30.57 18.1346 30.6488 18.0985 30.7355C18.0625 30.8222 18.0439 30.9152 18.044 31.009V36.6843C18.044 37.0789 18.3648 37.3989 18.7613 37.3989C19.1577 37.3989 19.4786 37.0789 19.4786 36.6843V34.5076H20.8867C21.2832 34.5076 21.604 34.1876 21.604 33.793C21.604 33.3983 21.2831 33.0782 20.8867 33.0782ZM7.7302 30.2734H6.13233C6.03797 30.2735 5.94454 30.292 5.85739 30.3281C5.77024 30.3641 5.69108 30.4169 5.62443 30.4835C5.49059 30.6176 5.41545 30.799 5.41544 30.9881H5.41492V36.7052C5.41492 37.0999 5.73579 37.4199 6.13224 37.4199C6.52869 37.4199 6.84957 37.0999 6.84957 36.7052V34.9328C7.1714 34.931 7.5252 34.9295 7.73011 34.9295C9.03586 34.9295 10.0986 33.885 10.0986 32.6017C10.0986 31.3178 9.03595 30.2734 7.7302 30.2734ZM7.7302 33.5001C7.43903 33.5005 7.14786 33.5015 6.85669 33.5032C6.8553 33.1735 6.85183 31.7027 6.85183 31.7027H7.73029C8.23679 31.7027 8.66408 32.1145 8.66408 32.6016C8.66408 33.0887 8.23671 33.5001 7.7302 33.5001ZM13.7456 30.3579H12.1687C12.0744 30.3579 11.981 30.3764 11.8938 30.4124C11.8067 30.4483 11.7275 30.5011 11.6608 30.5676C11.5942 30.6341 11.5413 30.713 11.5054 30.7999C11.4695 30.8868 11.4511 30.9799 11.4514 31.0739L11.4556 33.8404C11.4556 34.6119 11.4626 36.6232 11.4626 36.6232C11.463 36.7171 11.4819 36.8101 11.5183 36.8967C11.5548 36.9833 11.608 37.062 11.6749 37.1282C11.8092 37.2609 11.9908 37.3354 12.18 37.3354H12.1828C12.1828 37.3354 13.352 37.3309 13.8045 37.3232C15.4892 37.2935 16.7123 35.8315 16.7123 33.8467C16.7122 31.7599 15.5199 30.3579 13.7456 30.3579ZM13.7792 35.8939C13.5739 35.8973 13.2187 35.9005 12.8952 35.9022C12.8931 35.248 12.8903 34.3121 12.8903 33.8403L12.8875 31.7871H13.7456C15.2041 31.7871 15.2777 33.5025 15.2777 33.8465C15.2776 34.8526 14.8145 35.8758 13.7792 35.8939Z" fill="white"/>
</g>
<path id="Vector_7" d="M15.4562 24.4325C14.9028 24.4325 14.4026 24.1456 14.051 23.6044C13.5284 22.8011 13.6657 21.8914 14.4272 21.1083C15.195 20.3183 16.7662 19.5751 18.657 18.9683C19.2468 17.8607 19.8472 16.5644 20.4082 15.1312C20.7396 14.2844 21.0072 13.5208 21.2215 12.838C20.2765 11.112 19.7147 9.50518 19.8639 8.46179C20.0159 7.40308 20.8096 6.80709 21.9893 6.87199C22.3396 6.89086 23.1753 7.07302 23.3771 8.355C23.5312 9.33522 23.272 10.9197 22.7522 12.7203C23.7357 14.3733 25.0842 16.1438 26.4033 17.5026C28.397 17.3816 30.0866 17.5263 30.9363 18.0372C31.6017 18.4371 31.863 19.0892 31.6354 19.7812C31.2627 20.9122 30.3625 21.4303 29.2249 21.1662C28.2673 20.9435 27.0806 20.1106 25.8771 18.9542C23.9416 19.1238 21.6635 19.5164 19.6649 20.1019C18.4719 22.235 17.1823 23.8957 16.0993 24.3081C15.8808 24.3916 15.665 24.4325 15.4562 24.4325ZM15.2545 22.8277C15.3743 23.0112 15.4401 23.0074 15.4709 23.0039C15.9277 22.9575 16.6884 22.172 17.5571 20.8442C16.9826 21.0896 16.4678 21.3554 16.0349 21.6409C14.9491 22.3573 15.1795 22.7111 15.2545 22.8277ZM27.8919 18.8598C28.5048 19.3372 29.0743 19.6634 29.5507 19.7744C29.9227 19.8606 30.1139 19.8167 30.2722 19.3361C30.0607 19.0165 29.1605 18.8629 27.8919 18.8598ZM22.1945 14.4533C21.7144 15.8108 21.1592 17.1408 20.5315 18.4372C21.8758 18.1008 23.2929 17.8359 24.6463 17.6678C23.7714 16.6799 22.9258 15.5703 22.1945 14.4533ZM21.8491 8.2721C21.3398 8.2721 21.3133 8.46231 21.2838 8.66325C21.2089 9.19122 21.3952 9.94212 21.763 10.8078C22.0873 9.26513 22.0215 8.44898 21.8638 8.2721H21.8491Z" fill="#E15F78"/>
</g>
</g>
<defs>
<filter id="filter0_d_596_50809" x="-3.58533" y="-2.74219" width="48.1706" height="52.3086" filterUnits="userSpaceOnUse" color-interpolation-filters="sRGB">
<feFlood flood-opacity="0" result="BackgroundImageFix"/>
<feColorMatrix in="SourceAlpha" type="matrix" values="0 0 0 0 0 0 0 0 0 0 0 0 0 0 0 0 0 0 127 0" result="hardAlpha"/>
<feOffset dy="1"/>
<feGaussianBlur stdDeviation="2"/>
<feComposite in2="hardAlpha" operator="out"/>
<feColorMatrix type="matrix" values="0 0 0 0 0 0 0 0 0 0 0 0 0 0 0 0 0 0 0.25 0"/>
<feBlend mode="normal" in2="BackgroundImageFix" result="effect1_dropShadow_596_50809"/>
<feBlend mode="normal" in="SourceGraphic" in2="effect1_dropShadow_596_50809" result="shape"/>
</filter>
<clipPath id="clip0_596_50809">
<rect width="41" height="45" fill="white"/>
</clipPath>
</defs>
</svg>
