<svg width="40" height="40" viewBox="0 0 40 40" fill="none" xmlns="http://www.w3.org/2000/svg">
<path d="M20 40C31.0457 40 40 31.0457 40 20C40 8.9543 31.0457 0 20 0C8.9543 0 0 8.9543 0 20C0 31.0457 8.9543 40 20 40Z" fill="#B9499B"/>
<path d="M9.77802 9.79747C10.3199 9.24131 11.1219 9.03411 11.8697 9.25221L29.3077 14.3231C30.0967 14.5423 30.6559 15.1716 30.8065 15.9709C30.9604 16.7845 30.4229 17.8172 29.7206 18.249L24.2681 21.6002C23.7089 21.9437 22.9871 21.8576 22.5243 21.3908L16.2807 15.1083C15.9664 14.7812 15.4462 14.7812 15.1319 15.1083C14.8176 15.4246 14.8176 15.9371 15.1319 16.2643L21.3864 22.5479C21.8502 23.0135 21.9369 23.7387 21.5955 24.3014L18.264 29.8086C17.8738 30.4629 17.2019 30.8337 16.4649 30.8337C16.3782 30.8337 16.2807 30.8337 16.194 30.8228C15.3486 30.7137 14.6767 30.1357 14.4274 29.3178L9.2578 11.9022C9.03021 11.1606 9.23613 10.3536 9.77802 9.79747Z" fill="white"/>
</svg>
