<svg width="28" height="28" viewBox="0 0 28 28" fill="none" xmlns="http://www.w3.org/2000/svg">
<g id="Iconly/Light/Setting">
<g id="Setting">
<path id="Path_33946" fill-rule="evenodd" clip-rule="evenodd" d="M24.2744 8.89418L23.5482 7.63407C22.9339 6.56783 21.5725 6.2 20.5048 6.8118V6.8118C19.9965 7.11119 19.3901 7.19614 18.8191 7.04789C18.2482 6.89965 17.7597 6.5304 17.4613 6.02156C17.2693 5.69813 17.1662 5.32975 17.1623 4.95367V4.95367C17.1796 4.35072 16.9521 3.76643 16.5317 3.33391C16.1112 2.90139 15.5336 2.65747 14.9304 2.65772H13.4674C12.8764 2.65771 12.3098 2.89319 11.893 3.31206C11.4761 3.73093 11.2433 4.29865 11.2462 4.8896V4.8896C11.2287 6.10971 10.2345 7.08957 9.0143 7.08945C8.63822 7.08554 8.26984 6.98239 7.94641 6.79044V6.79044C6.87871 6.17864 5.51727 6.54647 4.90294 7.61271L4.12338 8.89418C3.50979 9.95909 3.87261 11.3197 4.93497 11.9377V11.9377C5.62553 12.3363 6.05093 13.0731 6.05093 13.8705C6.05093 14.6679 5.62553 15.4047 4.93497 15.8034V15.8034C3.87396 16.4172 3.51074 17.7745 4.12338 18.8362V18.8362L4.86022 20.107C5.14806 20.6264 5.63101 21.0096 6.2022 21.172C6.77339 21.3343 7.38572 21.2623 7.9037 20.972V20.972C8.4129 20.6749 9.0197 20.5935 9.5892 20.7459C10.1587 20.8983 10.6437 21.2718 10.9365 21.7836C11.1285 22.107 11.2316 22.4754 11.2355 22.8515V22.8515C11.2355 24.0841 12.2348 25.0833 13.4674 25.0833H14.9304C16.1589 25.0834 17.1564 24.0906 17.1623 22.8621V22.8621C17.1594 22.2693 17.3937 21.7 17.8128 21.2808C18.232 20.8616 18.8014 20.6274 19.3942 20.6303C19.7693 20.6403 20.1362 20.743 20.4621 20.9293V20.9293C21.527 21.5429 22.8875 21.18 23.5055 20.1177V20.1177L24.2744 18.8362C24.572 18.3254 24.6537 17.717 24.5014 17.1457C24.349 16.5745 23.9753 16.0875 23.4628 15.7927V15.7927C22.9504 15.4979 22.5766 15.011 22.4243 14.4397C22.2719 13.8685 22.3536 13.2601 22.6512 12.7492C22.8448 12.4114 23.1249 12.1312 23.4628 11.9377V11.9377C24.5188 11.32 24.8808 9.96737 24.2744 8.90485V8.90485V8.89418Z" stroke="#9A9EA6" stroke-width="1.5" stroke-linecap="round" stroke-linejoin="round"/>
<ellipse id="Ellipse_737" cx="14.2042" cy="13.8704" rx="3.07552" ry="3.07551" stroke="#9A9EA6" stroke-width="1.5" stroke-linecap="round" stroke-linejoin="round"/>
</g>
</g>
</svg>
