<svg width="190" height="192" viewBox="0 0 190 192" fill="none" xmlns="http://www.w3.org/2000/svg">
<g id="Frame" clip-path="url(#clip0_74_2464)">
<g id="Group">
<g id="Group_2">
<g id="Group_3">
<g id="Group_4">
<path id="Vector" d="M73.5114 89.0019C69.6965 85.1739 63.9742 85.1739 60.1593 89.0019C56.3444 92.8299 56.3444 98.572 60.1593 102.4L88.771 131.11C90.6785 133.024 92.5859 133.981 95.4471 133.981C98.3083 133.981 100.216 133.024 102.123 131.11L168.884 54.5496C171.745 49.7645 171.745 44.0225 166.977 41.1514C163.162 38.2804 157.439 38.2804 154.578 42.1084L95.4471 110.056L73.5114 89.0019Z" fill="#39B54A"/>
<path id="Vector_2" d="M181.282 86.1308C175.56 86.1308 171.745 89.9589 171.745 95.7009C171.745 137.809 137.411 172.262 95.447 172.262C53.4831 172.262 19.149 137.809 19.149 95.7009C19.149 75.6037 26.7788 56.4636 41.0847 42.1084C55.3905 26.7963 74.4651 19.1402 95.447 19.1402C101.169 19.1402 107.845 20.0972 113.568 21.0542C118.336 22.9682 124.059 20.0972 125.966 14.3551C127.874 8.61308 124.059 4.78505 119.29 2.87103H118.336C110.707 0.957009 103.077 0 95.447 0C42.9921 0 0.0744629 43.0654 0.0744629 96.6579C0.0744629 121.54 10.5654 146.422 27.7325 163.649C45.8533 181.832 69.6964 191.402 94.4933 191.402C146.948 191.402 189.866 148.336 189.866 95.7009C190.82 89.9589 186.051 86.1308 181.282 86.1308Z" fill="#39B54A"/>
</g>
</g>
</g>
</g>
</g>
<defs>
<clipPath id="clip0_74_2464">
<rect width="190" height="192" fill="white"/>
</clipPath>
</defs>
</svg>
