<svg width="28" height="28" viewBox="0 0 28 28" fill="none" xmlns="http://www.w3.org/2000/svg">
<g id="svgexport-17 1" clip-path="url(#clip0_218_16112)">
<g id="Group">
<path id="Vector" d="M4.10156 10.7188V20.6172" stroke="#9A9EA6" stroke-width="1.3" stroke-miterlimit="10" stroke-linecap="round" stroke-linejoin="round"/>
<g id="Clip path group">
<mask id="mask0_218_16112" style="mask-type:luminance" maskUnits="userSpaceOnUse" x="0" y="0" width="28" height="28">
<g id="a">
<path id="Vector_2" d="M27.3499 27.35V0.650082H0.65V27.35H27.3499Z" fill="white" stroke="white" stroke-width="1.3"/>
</g>
</mask>
<g mask="url(#mask0_218_16112)">
<g id="Group_2">
<path id="Vector_3" d="M4.10155 18.9766C4.10155 18.9766 0.820312 20.5626 0.820312 15.6407C0.820312 10.7189 4.10155 12.3595 4.10155 12.3595" stroke="#9A9EA6" stroke-width="1.3" stroke-miterlimit="10" stroke-linecap="round" stroke-linejoin="round"/>
<path id="Vector_4" d="M7.3828 20.6172H4.10156V10.7188H7.3828V20.6172Z" stroke="#9A9EA6" stroke-width="1.3" stroke-miterlimit="10" stroke-linecap="round" stroke-linejoin="round"/>
<path id="Vector_5" d="M23.8984 10.7188V20.6172" stroke="#9A9EA6" stroke-width="1.3" stroke-miterlimit="10" stroke-linecap="round" stroke-linejoin="round"/>
<path id="Vector_6" d="M23.8984 18.9766C23.8984 18.9766 27.1796 20.5626 27.1796 15.6407C27.1796 10.7189 23.8984 12.3595 23.8984 12.3595" stroke="#9A9EA6" stroke-width="1.3" stroke-miterlimit="10" stroke-linecap="round" stroke-linejoin="round"/>
<path id="Vector_7" d="M20.6171 20.6172H23.8984V10.7188H20.6171V20.6172Z" stroke="#9A9EA6" stroke-width="1.3" stroke-miterlimit="10" stroke-linecap="round" stroke-linejoin="round"/>
<path id="Vector_8" d="M17.2812 25.5391H20.6171C22.4293 25.5391 23.8984 24.07 23.8984 22.2578V20.6172" stroke="#9A9EA6" stroke-width="1.3" stroke-miterlimit="10" stroke-linecap="round" stroke-linejoin="round"/>
<path id="Vector_9" d="M4.10156 10.7188C4.10156 5.28223 8.56345 0.820342 14 0.820342C19.4365 0.820342 23.8984 5.28223 23.8984 10.7188" stroke="#9A9EA6" stroke-width="1.3" stroke-miterlimit="10" stroke-linecap="round" stroke-linejoin="round"/>
<path id="Vector_10" d="M15.6406 27.1797H14C13.0939 27.1797 12.3593 26.4451 12.3593 25.5391C12.3593 24.633 13.0939 23.8984 14 23.8984H15.6406C16.5466 23.8984 17.2812 24.633 17.2812 25.5391C17.2812 26.4451 16.5466 27.1797 15.6406 27.1797Z" stroke="#9A9EA6" stroke-width="1.3" stroke-miterlimit="10" stroke-linecap="round" stroke-linejoin="round"/>
</g>
</g>
</g>
</g>
</g>
<defs>
<clipPath id="clip0_218_16112">
<rect width="28" height="28" fill="white"/>
</clipPath>
</defs>
</svg>
