<svg width="20" height="20" viewBox="0 0 20 20" fill="none" xmlns="http://www.w3.org/2000/svg">
<g id="Group 1000005094">
<circle id="Ellipse 26" cx="10" cy="10" r="10" fill="#E42021"/>
<g id="Group">
<g id="Group_2">
<path id="Vector" d="M15.6921 13.7124L6.28786 4.30763C5.87772 3.89746 5.21275 3.89746 4.80323 4.30763L4.30761 4.80252C3.89746 5.21282 3.89746 5.87781 4.30761 6.28732L13.7119 15.6921C14.1222 16.1023 14.7871 16.1023 15.1966 15.6921L15.6915 15.1972C16.1024 14.7877 16.1024 14.1226 15.6921 13.7124Z" fill="white"/>
<path id="Vector_2" d="M13.7119 4.30753L4.30761 13.7123C3.89746 14.1225 3.89746 14.7876 4.30761 15.1971L4.80248 15.692C5.21276 16.1022 5.87772 16.1022 6.28721 15.692L15.6921 6.28788C16.1024 5.87771 16.1024 5.21272 15.6921 4.80321L15.1973 4.30831C14.7871 3.89736 14.1222 3.89736 13.7119 4.30753Z" fill="white"/>
</g>
</g>
</g>
</svg>
