<svg width="36" height="30" viewBox="0 0 36 30" fill="none" xmlns="http://www.w3.org/2000/svg">
<g clip-path="url(#clip0_756_61842)">
<path d="M19.2181 21.5548H3.73946V15.7522L7.24815 11.6961C7.42545 11.494 7.6444 11.3328 7.88988 11.2238C8.13536 11.1148 8.40151 11.0606 8.66994 11.0648C8.93837 11.0691 9.20268 11.1317 9.4446 11.2485C9.68653 11.3652 9.9003 11.5332 10.0711 11.7408L13.092 15.4722L18.8141 8.52433C18.9886 8.31722 19.206 8.15076 19.4512 8.03654C19.6964 7.92231 19.9635 7.86308 20.2339 7.86297C20.5043 7.86286 20.7714 7.92186 21.0167 8.03588C21.262 8.14989 21.4796 8.31618 21.6543 8.52314L25.7792 13.5308C23.9894 14.0181 22.3957 15.0529 21.2198 16.4911C20.0439 17.9292 19.3439 19.6993 19.2181 21.5548ZM13.3594 4.58326C12.729 4.58326 12.1245 4.83437 11.6788 5.28136C11.233 5.72835 10.9826 6.33459 10.9826 6.96673C10.9826 7.59887 11.233 8.20511 11.6788 8.6521C12.1245 9.09909 12.729 9.35021 13.3594 9.35021C13.9898 9.35021 14.5943 9.09909 15.04 8.6521C15.4857 8.20511 15.7362 7.59887 15.7362 6.96673C15.7362 6.33459 15.4857 5.72835 15.04 5.28136C14.5943 4.83437 13.9898 4.58326 13.3594 4.58326ZM19.2181 22.7465H3.14527C2.98768 22.7465 2.83654 22.6837 2.72511 22.572C2.61368 22.4603 2.55108 22.3087 2.55108 22.1507V3.08286C2.55108 2.92482 2.61368 2.77326 2.72511 2.66152C2.83654 2.54977 2.98768 2.48699 3.14527 2.48699H28.1013C28.2588 2.48699 28.41 2.54977 28.5214 2.66152C28.6328 2.77326 28.6954 2.92482 28.6954 3.08286V13.2424C29.5065 13.2959 30.3063 13.4613 31.0722 13.734V1.89112C31.0717 1.41716 30.8838 0.962754 30.5496 0.627616C30.2154 0.292477 29.7623 0.103989 29.2896 0.103516H1.95689C1.48426 0.103989 1.03114 0.292477 0.69694 0.627616C0.362746 0.962754 0.174788 1.41716 0.174316 1.89112V23.3424C0.174788 23.8164 0.362746 24.2708 0.69694 24.6059C1.03114 24.941 1.48426 25.1295 1.95689 25.13H19.7083C19.4366 24.3619 19.2713 23.5598 19.2181 22.7465ZM28.1013 14.4044C26.5735 14.4044 25.0801 14.8587 23.8098 15.7098C22.5395 16.561 21.5494 17.7708 20.9648 19.1863C20.3801 20.6017 20.2272 22.1592 20.5252 23.6619C20.8233 25.1645 21.5589 26.5448 22.6392 27.6281C23.7195 28.7114 25.0959 29.4492 26.5943 29.7481C28.0927 30.047 29.6458 29.8936 31.0573 29.3073C32.4687 28.721 33.6751 27.7281 34.5239 26.4543C35.3727 25.1804 35.8257 23.6827 35.8257 22.1507C35.8234 20.0969 35.0088 18.128 33.5607 16.6758C32.1126 15.2236 30.1492 14.4067 28.1013 14.4044ZM31.0722 22.1507H29.8838V26.9176C29.8838 27.0756 29.8212 27.2272 29.7098 27.3389C29.5984 27.4507 29.4472 27.5135 29.2896 27.5135H26.9129C26.7553 27.5135 26.6042 27.4507 26.4927 27.3389C26.3813 27.2272 26.3187 27.0756 26.3187 26.9176V22.1364L25.1374 22.1507C25.0278 22.1516 24.9201 22.1221 24.8261 22.0655C24.7322 22.009 24.6556 21.9275 24.6048 21.8301C24.5541 21.7327 24.5311 21.6231 24.5385 21.5134C24.5459 21.4038 24.5833 21.2983 24.6466 21.2086L27.6176 17.0375C27.6753 16.9643 27.7488 16.9052 27.8326 16.8646C27.9164 16.8239 28.0082 16.8028 28.1013 16.8028C28.1943 16.8028 28.2862 16.8239 28.3699 16.8646C28.4537 16.9052 28.5272 16.9643 28.5849 17.0375L31.5559 21.2086C31.6178 21.298 31.6542 21.4027 31.6614 21.5113C31.6685 21.62 31.646 21.7285 31.5963 21.8253C31.5466 21.9221 31.4715 22.0036 31.3792 22.0609C31.2869 22.1182 31.1808 22.1492 31.0722 22.1507Z" fill="white"/>
</g>
<defs>
<clipPath id="clip0_756_61842">
<rect width="36" height="30" fill="white"/>
</clipPath>
</defs>
</svg>
