<svg width="46" height="40" viewBox="0 0 46 40" fill="none" xmlns="http://www.w3.org/2000/svg">
<path d="M14.5281 6.67889C15.2894 4.90847 15.67 4.02326 16.1918 3.30373C17.3346 1.72765 19.013 0.622395 20.9123 0.195084C21.7795 0 22.743 0 24.6702 0L34.76 0C37.5885 0 39.0028 0 40.1523 0.353656C42.6848 1.13275 44.6673 3.1152 45.4464 5.64768C45.8 6.79725 45.8 8.2115 45.8 11.04V28.96C45.8 31.7885 45.8 33.2027 45.4464 34.3523C44.6673 36.8848 42.6848 38.8673 40.1523 39.6463C39.0028 40 37.5885 40 34.76 40H16.9646C12.8735 40 10.8279 40 9.41354 39.4423C6.27406 38.2043 4.2491 35.1293 4.35198 31.7561C4.39832 30.2365 5.20638 28.3573 6.82249 24.5989L14.5281 6.67889Z" fill="#41174E"/>
<path fill-rule="evenodd" clip-rule="evenodd" d="M27.6047 11.3953C27.3636 11.3953 27.0672 11.5154 26.8071 11.8664L26.8032 11.8718L25.8554 13.1262C24.9353 14.3555 23.2692 14.4462 22.2116 13.3332L22.2092 13.3307C22.2035 13.325 22.1979 13.3193 22.1924 13.3134C21.7116 12.7985 21.3308 12.5878 21.0928 12.534C20.9359 12.4986 20.8474 12.5249 20.765 12.613C20.5186 13.1834 20.3953 14.0428 20.3953 15.386V24.614C20.3953 25.9664 20.5203 26.8284 20.7701 27.3987C20.8534 27.4798 20.9435 27.5022 21.0942 27.4676C21.3318 27.4132 21.7109 27.2022 22.1924 26.6866C22.1979 26.6807 22.2035 26.675 22.2092 26.6693L22.2116 26.6668C23.2692 25.5538 24.9354 25.6446 25.8554 26.8739C25.8558 26.8744 25.8562 26.8749 25.8565 26.8754L26.8071 28.1335C27.0672 28.4846 27.3636 28.6047 27.6047 28.6047C27.8457 28.6047 28.1421 28.4846 28.4022 28.1336L28.4056 28.1289L29.3442 26.8837C29.3443 26.8836 29.344 26.8839 29.3442 26.8837C30.274 25.6446 31.9576 25.55 33.0173 26.687C33.6148 27.3278 34.0368 27.4791 34.2372 27.4791C34.317 27.4791 34.3777 27.4601 34.4381 27.4014C34.6886 26.831 34.814 25.9685 34.814 24.614V15.386C34.814 14.0439 34.6909 13.1848 34.4449 12.6144C34.3744 12.5403 34.3093 12.5209 34.2372 12.5209C34.0368 12.5209 33.6148 12.6722 33.0173 13.313C31.9576 14.45 30.2745 14.3559 29.3447 13.117C29.3445 13.1167 29.3449 13.1172 29.3447 13.117L28.4022 11.8665C28.1421 11.5154 27.8457 11.3953 27.6047 11.3953ZM34.3488 12.2512C34.3488 12.2682 34.3495 12.2853 34.3507 12.3023C34.3472 12.2633 34.3488 12.2424 34.3488 12.2512ZM20.8605 12.2512C20.8605 12.2424 20.8621 12.2633 20.8586 12.3023C20.8598 12.2853 20.8605 12.2682 20.8605 12.2512ZM25.688 11.033C26.172 10.3812 26.8607 10 27.6047 10C28.3487 10 29.0375 10.3813 29.5216 11.0334L30.4604 12.2791C30.8702 12.8254 31.5308 12.8614 31.9966 12.3616C32.6827 11.6257 33.4516 11.1256 34.2372 11.1256C34.7591 11.1256 35.2055 11.3543 35.5276 11.7324C35.5783 11.7819 35.628 11.8449 35.6679 11.9247C35.6837 11.9561 35.6961 11.9867 35.706 12.0158C36.0878 12.8712 36.2093 13.9875 36.2093 15.386V24.614C36.2093 26.0196 36.0866 27.1401 35.7002 27.9972C35.6855 28.038 35.6713 28.0663 35.6651 28.0786L35.6646 28.0798C35.6448 28.1193 35.6129 28.1747 35.5644 28.2323C35.231 28.648 34.7655 28.8744 34.2372 28.8744C33.4516 28.8744 32.6829 28.3745 31.9967 27.6386C31.531 27.1388 30.8702 27.1746 30.4604 27.7209L29.5234 28.9641C29.5228 28.965 29.5222 28.9658 29.5216 28.9666C29.0375 29.6187 28.3487 30 27.6047 30C26.8607 30 26.172 29.6188 25.688 28.9669L24.741 27.7136L24.7388 27.7107C24.34 27.177 23.6873 27.1355 23.2193 27.632C23.2145 27.6371 23.2097 27.6421 23.2048 27.647L23.2037 27.648C22.6365 28.2533 22.0279 28.6852 21.4058 28.8277C20.7269 28.9833 20.0903 28.7756 19.6489 28.2371C19.5982 28.1777 19.5651 28.1204 19.5448 28.0798L19.5442 28.0786C19.538 28.0663 19.5238 28.038 19.5091 27.9972C19.1227 27.1401 19 26.0196 19 24.614V15.386C19 13.9875 19.1215 12.8712 19.5033 12.0158C19.5132 11.9867 19.5256 11.9561 19.5414 11.9247C19.581 11.8456 19.6302 11.783 19.6804 11.7337C20.1159 11.2188 20.7387 11.0236 21.4002 11.1729C22.0242 11.3139 22.6358 11.746 23.2038 12.352L23.2048 12.353C23.2097 12.3579 23.2145 12.3629 23.2193 12.368C23.6873 12.8645 24.34 12.823 24.7388 12.2893L24.741 12.2864L25.688 11.033Z" fill="white"/>
<path fill-rule="evenodd" clip-rule="evenodd" d="M23.6512 18.3721C23.6512 17.9868 23.9635 17.6744 24.3489 17.6744H31.7907C32.176 17.6744 32.4884 17.9868 32.4884 18.3721C32.4884 18.7574 32.176 19.0698 31.7907 19.0698H24.3489C23.9635 19.0698 23.6512 18.7574 23.6512 18.3721Z" fill="white"/>
<path fill-rule="evenodd" clip-rule="evenodd" d="M23.6512 21.6279C23.6512 21.2426 23.9635 20.9302 24.3489 20.9302H29.9303C30.3156 20.9302 30.6279 21.2426 30.6279 21.6279C30.6279 22.0132 30.3156 22.3256 29.9303 22.3256H24.3489C23.9635 22.3256 23.6512 22.0132 23.6512 21.6279Z" fill="white"/>
</svg>
