<svg width="46" height="40" viewBox="0 0 46 40" fill="none" xmlns="http://www.w3.org/2000/svg">
<path d="M14.3281 6.67889C15.0894 4.90847 15.47 4.02326 15.9918 3.30373C17.1346 1.72765 18.813 0.622395 20.7123 0.195084C21.5794 0 22.543 0 24.4702 0L34.56 0C37.3885 0 38.8027 0 39.9523 0.353656C42.4848 1.13275 44.4672 3.1152 45.2463 5.64768C45.6 6.79725 45.6 8.2115 45.6 11.04V28.96C45.6 31.7885 45.6 33.2027 45.2463 34.3523C44.4672 36.8848 42.4848 38.8673 39.9523 39.6463C38.8027 40 37.3885 40 34.56 40H16.7646C12.6735 40 10.6279 40 9.21353 39.4423C6.07405 38.2043 4.04909 35.1293 4.15197 31.7561C4.19831 30.2365 5.00637 28.3573 6.62248 24.5989L14.3281 6.67889Z" fill="#41174E"/>
<g clip-path="url(#clip0_142_23)">
<path d="M26.1417 11.6667H24.4751C20.3084 11.6667 18.6417 13.3333 18.6417 17.5V22.5C18.6417 26.6667 20.3084 28.3333 24.4751 28.3333H29.4751C33.6417 28.3333 35.3084 26.6667 35.3084 22.5V20.8333" stroke="white" stroke-width="1.5" stroke-linecap="round" stroke-linejoin="round"/>
<path d="M35.2334 12.9667C34.2084 15.525 31.6334 19.0083 29.4834 20.7333L28.1667 21.7833C28 21.9083 27.8334 22.0083 27.6417 22.0833C27.6417 21.9583 27.6334 21.8333 27.6167 21.7C27.5417 21.1417 27.2917 20.6167 26.8417 20.175C26.3834 19.7167 25.8334 19.4583 25.2667 19.3833C25.1334 19.375 25 19.3667 24.8667 19.375C24.9417 19.1667 25.05 18.975 25.1917 18.8167L26.2417 17.5C27.9667 15.35 31.4584 12.7583 34.0084 11.7333C34.4 11.5833 34.7834 11.7 35.025 11.9417C35.275 12.1917 35.3917 12.575 35.2334 12.9667Z" stroke="white" stroke-width="1.5" stroke-linecap="round" stroke-linejoin="round"/>
<path d="M27.65 22.075C27.65 22.8083 27.3667 23.5083 26.8417 24.0417C26.4334 24.45 25.8834 24.7333 25.225 24.8167L23.5834 24.9917C22.6917 25.0917 21.925 24.3333 22.025 23.425L22.2 21.7833C22.3584 20.325 23.575 19.3917 24.875 19.3667C25.0084 19.3583 25.1417 19.3667 25.275 19.375C25.8417 19.45 26.3917 19.7083 26.85 20.1667C27.3 20.6167 27.55 21.1333 27.625 21.6917C27.6417 21.825 27.65 21.9583 27.65 22.075Z" stroke="white" stroke-width="1.5" stroke-linecap="round" stroke-linejoin="round"/>
<path d="M30.1834 19.9833C30.1834 18.2417 28.775 16.825 27.025 16.825" stroke="white" stroke-width="1.5" stroke-linecap="round" stroke-linejoin="round"/>
</g>
<defs>
<clipPath id="clip0_142_23">
<rect width="20" height="20" fill="white" transform="translate(17 10)"/>
</clipPath>
</defs>
</svg>
