<svg width="46" height="40" viewBox="0 0 46 40" fill="none" xmlns="http://www.w3.org/2000/svg">
<path d="M14.5281 6.67889C15.2894 4.90847 15.67 4.02326 16.1918 3.30373C17.3346 1.72765 19.013 0.622395 20.9123 0.195084C21.7795 0 22.743 0 24.6702 0L34.76 0C37.5885 0 39.0028 0 40.1523 0.353656C42.6848 1.13275 44.6673 3.1152 45.4464 5.64768C45.8 6.79725 45.8 8.2115 45.8 11.04V28.96C45.8 31.7885 45.8 33.2027 45.4464 34.3523C44.6673 36.8848 42.6848 38.8673 40.1523 39.6463C39.0028 40 37.5885 40 34.76 40H16.9646C12.8735 40 10.8279 40 9.41354 39.4423C6.27406 38.2043 4.2491 35.1293 4.35198 31.7561C4.39832 30.2365 5.20638 28.3573 6.82249 24.5989L14.5281 6.67889Z" fill="#41174E"/>
<path d="M32.4166 27.25H29.0833" stroke="white" stroke-width="1.5" stroke-linecap="round" stroke-linejoin="round"/>
<path d="M30.75 28.9167V25.5833" stroke="white" stroke-width="1.5" stroke-linecap="round" stroke-linejoin="round"/>
<path d="M27.133 20.0583C27.0497 20.05 26.9497 20.05 26.858 20.0583C24.8747 19.9917 23.2997 18.3667 23.2997 16.3667C23.2913 14.325 24.9497 12.6667 26.9913 12.6667C29.033 12.6667 30.6913 14.325 30.6913 16.3667C30.6913 18.3667 29.108 19.9917 27.133 20.0583Z" stroke="white" stroke-width="1.5" stroke-linecap="round" stroke-linejoin="round"/>
<path d="M26.9916 29.175C25.475 29.175 23.9666 28.7917 22.8166 28.025C20.8 26.675 20.8 24.475 22.8166 23.1333C25.1083 21.6 28.8666 21.6 31.1583 23.1333" stroke="white" stroke-width="1.5" stroke-linecap="round" stroke-linejoin="round"/>
</svg>
