<svg width="46" height="40" viewBox="0 0 46 40" fill="none" xmlns="http://www.w3.org/2000/svg">
<path d="M14.5281 6.67889C15.2894 4.90847 15.67 4.02326 16.1918 3.30373C17.3346 1.72765 19.013 0.622395 20.9123 0.195084C21.7795 0 22.743 0 24.6702 0L34.76 0C37.5885 0 39.0028 0 40.1523 0.353656C42.6848 1.13275 44.6673 3.1152 45.4464 5.64768C45.8 6.79725 45.8 8.2115 45.8 11.04V28.96C45.8 31.7885 45.8 33.2027 45.4464 34.3523C44.6673 36.8848 42.6848 38.8673 40.1523 39.6463C39.0028 40 37.5885 40 34.76 40H16.9646C12.8735 40 10.8279 40 9.41354 39.4423C6.27406 38.2043 4.2491 35.1293 4.35198 31.7561C4.39832 30.2365 5.20638 28.3573 6.82249 24.5989L14.5281 6.67889Z" fill="#41174E"/>
<path d="M25.5 29.3333H30.5C34.6667 29.3333 36.3334 27.6667 36.3334 23.5V18.5C36.3334 14.3333 34.6667 12.6667 30.5 12.6667H25.5C21.3334 12.6667 19.6667 14.3333 19.6667 18.5V23.5C19.6667 27.6667 21.3334 29.3333 25.5 29.3333Z" stroke="white" stroke-width="1.5" stroke-linecap="round" stroke-linejoin="round"/>
<path d="M23 21L26.3333 24.3333L33 17.6667" stroke="white" stroke-width="1.5" stroke-linecap="round" stroke-linejoin="round"/>
</svg>
