<svg width="20" height="20" viewBox="0 0 20 20" fill="none" xmlns="http://www.w3.org/2000/svg">
<path d="M10.133 9.05833C10.0496 9.05 9.94964 9.05 9.85798 9.05833C7.87464 8.99166 6.29964 7.36666 6.29964 5.36666C6.29964 3.325 7.94964 1.66666 9.99964 1.66666C12.0413 1.66666 13.6996 3.325 13.6996 5.36666C13.6913 7.36666 12.1163 8.99166 10.133 9.05833Z" stroke="white" stroke-width="1.5" stroke-linecap="round" stroke-linejoin="round"/>
<path d="M5.96644 12.1333C3.94977 13.4833 3.94977 15.6833 5.96644 17.025C8.25811 18.5583 12.0164 18.5583 14.3081 17.025C16.3248 15.675 16.3248 13.475 14.3081 12.1333C12.0248 10.6083 8.26644 10.6083 5.96644 12.1333Z" stroke="white" stroke-width="1.5" stroke-linecap="round" stroke-linejoin="round"/>
</svg>
