<svg width="18" height="20" viewBox="0 0 18 20" fill="none" xmlns="http://www.w3.org/2000/svg">
<path fill-rule="evenodd" clip-rule="evenodd" d="M8.60465 1.39535C8.36359 1.39535 8.06717 1.51536 7.80711 1.86644L7.80318 1.87175L6.85537 3.12621C5.93531 4.35545 4.26916 4.44621 3.21161 3.33317L3.20917 3.33073C3.20348 3.32505 3.19789 3.31927 3.19241 3.31339C2.71158 2.79853 2.33084 2.58777 2.09284 2.53403C1.93591 2.49859 1.84745 2.5249 1.76498 2.613C1.51858 3.18343 1.39535 4.04283 1.39535 5.38605V14.614C1.39535 15.9664 1.52028 16.8284 1.77009 17.3987C1.85339 17.4798 1.94346 17.5022 2.09419 17.4676C2.3318 17.4132 2.71089 17.2022 3.19241 16.6866C3.19789 16.6807 3.20348 16.675 3.20917 16.6693L3.21164 16.6668C4.26922 15.5538 5.93541 15.6446 6.85544 16.8739C6.85581 16.8744 6.85617 16.8749 6.85654 16.8754L7.80714 18.1335C8.06719 18.4846 8.36358 18.6047 8.60465 18.6047C8.84572 18.6047 9.14214 18.4846 9.40219 18.1336L9.40564 18.1289L10.3442 16.8837C10.3443 16.8836 10.344 16.8839 10.3442 16.8837C11.274 15.6446 12.9576 15.55 14.0173 16.687C14.6148 17.3278 15.0368 17.4791 15.2372 17.4791C15.317 17.4791 15.3777 17.4601 15.4381 17.4014C15.6886 16.831 15.814 15.9685 15.814 14.614V5.38605C15.814 4.04389 15.6909 3.18479 15.4449 2.61435C15.3744 2.54034 15.3093 2.52093 15.2372 2.52093C15.0368 2.52093 14.6148 2.67215 14.0173 3.313C12.9576 4.44999 11.2745 4.35594 10.3447 3.11698C10.3445 3.11675 10.3449 3.11722 10.3447 3.11698L9.40217 1.86645C9.14211 1.51538 8.84572 1.39535 8.60465 1.39535ZM15.3488 2.25116C15.3488 2.26825 15.3495 2.2853 15.3507 2.30229C15.3472 2.26332 15.3488 2.24237 15.3488 2.25116ZM1.86047 2.25116C1.86047 2.24237 1.86215 2.26332 1.85859 2.30228C1.85984 2.2853 1.86047 2.26825 1.86047 2.25116ZM6.68798 1.03305C7.172 0.381207 7.86075 0 8.60465 0C9.34868 0 10.0375 0.381331 10.5216 1.03337L11.4604 2.27907C11.8702 2.82543 12.5308 2.86142 12.9966 2.36159C13.6827 1.62569 14.4516 1.12558 15.2372 1.12558C15.7591 1.12558 16.2055 1.35428 16.5276 1.73241C16.5783 1.78188 16.628 1.84492 16.6679 1.9247C16.6837 1.95607 16.6961 1.98666 16.706 2.0158C17.0878 2.87122 17.2093 3.9875 17.2093 5.38605V14.614C17.2093 16.0196 17.0866 17.1401 16.7002 17.9972C16.6855 18.038 16.6713 18.0663 16.6651 18.0786L16.6646 18.0798C16.6448 18.1193 16.6129 18.1747 16.5644 18.2323C16.231 18.648 15.7655 18.8744 15.2372 18.8744C14.4516 18.8744 13.6829 18.3745 12.9967 17.6386C12.531 17.1388 11.8702 17.1746 11.4604 17.7209L10.5234 18.9641C10.5228 18.965 10.5222 18.9658 10.5216 18.9666C10.0375 19.6187 9.34868 20 8.60465 20C7.86074 20 7.17198 19.6188 6.68795 18.9669L5.74103 17.7136L5.73885 17.7107C5.33996 17.177 4.68731 17.1355 4.21932 17.632C4.21454 17.6371 4.20969 17.6421 4.20476 17.647L4.20374 17.648C3.63651 18.2533 3.02788 18.6852 2.40581 18.8277C1.72692 18.9833 1.09035 18.7756 0.648948 18.2371C0.59817 18.1777 0.565094 18.1204 0.544754 18.0798L0.544184 18.0786C0.538023 18.0663 0.523831 18.038 0.509145 17.9972C0.122727 17.1401 0 16.0196 0 14.614V5.38605C0 3.98749 0.121491 2.87121 0.503315 2.01579C0.513186 1.98665 0.525639 1.95607 0.541358 1.9247C0.580971 1.84563 0.630159 1.783 0.680399 1.73372C1.11587 1.21883 1.73865 1.02357 2.40018 1.17295C3.02419 1.31385 3.6358 1.74601 4.20375 2.35199L4.20476 2.35299C4.20969 2.35792 4.21454 2.36292 4.21932 2.36799C4.68731 2.86451 5.33996 2.82303 5.73885 2.28931L5.74103 2.2864L6.68798 1.03305Z" fill="white"/>
<path fill-rule="evenodd" clip-rule="evenodd" d="M4.65116 8.37209C4.65116 7.98678 4.96352 7.67442 5.34884 7.67442H12.7907C13.176 7.67442 13.4884 7.98678 13.4884 8.37209C13.4884 8.7574 13.176 9.06976 12.7907 9.06976H5.34884C4.96352 9.06976 4.65116 8.7574 4.65116 8.37209Z" fill="white"/>
<path fill-rule="evenodd" clip-rule="evenodd" d="M4.65116 11.6279C4.65116 11.2426 4.96352 10.9302 5.34884 10.9302H10.9302C11.3155 10.9302 11.6279 11.2426 11.6279 11.6279C11.6279 12.0132 11.3155 12.3256 10.9302 12.3256H5.34884C4.96352 12.3256 4.65116 12.0132 4.65116 11.6279Z" fill="white"/>
</svg>
