<svg width="20" height="20" viewBox="0 0 20 20" fill="none" xmlns="http://www.w3.org/2000/svg">
<path d="M7.63298 9.05833C7.54964 9.05 7.44964 9.05 7.35798 9.05833C5.37464 8.99167 3.79964 7.36667 3.79964 5.36667C3.79964 3.325 5.44964 1.66667 7.49964 1.66667C9.54131 1.66667 11.1996 3.325 11.1996 5.36667C11.1913 7.36667 9.61631 8.99167 7.63298 9.05833Z" stroke="white" stroke-width="1.5" stroke-linecap="round" stroke-linejoin="round"/>
<path d="M13.6752 3.33333C15.2919 3.33333 16.5919 4.64167 16.5919 6.25C16.5919 7.825 15.3419 9.10833 13.7836 9.16667C13.7169 9.15833 13.6419 9.15833 13.5669 9.16667" stroke="white" stroke-width="1.5" stroke-linecap="round" stroke-linejoin="round"/>
<path d="M3.46644 12.1333C1.44977 13.4833 1.44977 15.6833 3.46644 17.025C5.75811 18.5583 9.51644 18.5583 11.8081 17.025C13.8248 15.675 13.8248 13.475 11.8081 12.1333C9.52477 10.6083 5.76644 10.6083 3.46644 12.1333Z" stroke="white" stroke-width="1.5" stroke-linecap="round" stroke-linejoin="round"/>
<path d="M15.2833 16.6667C15.8833 16.5417 16.45 16.3 16.9167 15.9417C18.2167 14.9667 18.2167 13.3583 16.9167 12.3833C16.4583 12.0333 15.9 11.8 15.3083 11.6667" stroke="white" stroke-width="1.5" stroke-linecap="round" stroke-linejoin="round"/>
</svg>
