<svg width="17" height="18" viewBox="0 0 17 18" fill="none" xmlns="http://www.w3.org/2000/svg">
<path fill-rule="evenodd" clip-rule="evenodd" d="M1.10084 0C0.350027 0 -0.180136 0.735569 0.0572915 1.44785L0.962101 4.16228V15C0.962101 16.6569 2.30525 18 3.9621 18H13.9621C15.619 18 16.9621 16.6569 16.9621 15V1.5C16.9621 0.671572 16.2905 0 15.4621 0H1.10084ZM2.9621 5H6.9621C7.51438 5 7.9621 5.44772 7.9621 6C7.9621 6.55228 7.51438 7 6.9621 7H2.9621V5ZM2.9621 8H6.9621C7.51438 8 7.9621 8.44772 7.9621 9C7.9621 9.55228 7.51438 10 6.9621 10H2.9621V8ZM2.9621 13V11H6.9621C7.51438 11 7.9621 11.4477 7.9621 12C7.9621 12.5523 7.51438 13 6.9621 13H2.9621Z" fill="#CED1D6"/>
</svg>
