<svg width="24" height="24" viewBox="0 0 24 24" fill="none" xmlns="http://www.w3.org/2000/svg">
<path fill-rule="evenodd" clip-rule="evenodd" d="M13.6185 0.67041C12.7246 -0.223471 11.2754 -0.223469 10.3815 0.67041L8.20759 2.84431H5.13321C3.86907 2.84431 2.84429 3.86909 2.84429 5.13323V8.20761L0.67041 10.3815C-0.223469 11.2754 -0.223471 12.7246 0.67041 13.6185L2.84429 15.7924V18.8668C2.84429 20.1309 3.86907 21.1557 5.13321 21.1557H8.20759L10.3815 23.3296C11.2754 24.2235 12.7246 24.2235 13.6185 23.3296L15.7924 21.1557H18.8667C20.1309 21.1557 21.1557 20.1309 21.1557 18.8668V15.7924L23.3296 13.6185C24.2235 12.7246 24.2235 11.2754 23.3296 10.3815L21.1557 8.20757V5.13323C21.1557 3.86909 20.1309 2.84431 18.8667 2.84431L15.7924 2.84431L13.6185 0.67041ZM17.1428 10.1652C17.5897 9.71823 17.5897 8.9936 17.1428 8.54666C16.6959 8.09972 15.9712 8.09972 15.5243 8.54666L10.6666 13.4044L8.64343 11.3812C8.19649 10.9343 7.47185 10.9343 7.02491 11.3812C6.57797 11.8282 6.57797 12.5528 7.02491 12.9997L9.77639 15.7512C10.268 16.2428 11.0651 16.2428 11.5568 15.7512L17.1428 10.1652Z" fill="#D1D3D8"/>
</svg>
