<svg width="24" height="19" viewBox="0 0 24 19" fill="none" xmlns="http://www.w3.org/2000/svg">
<path fill-rule="evenodd" clip-rule="evenodd" d="M0 2.375C0 1.06332 1.07452 0 2.4 0H21.6C22.9255 0 24 1.06332 24 2.375V16.625C24 17.9367 22.9255 19 21.6 19H2.4C1.07452 19 0 17.9367 0 16.625V2.375ZM3.6 12.4688C3.6 10.8292 4.94315 9.5 6.6 9.5H9C10.6569 9.5 12 10.8292 12 12.4688V13.0625C12 13.7183 11.4627 14.25 10.8 14.25C10.1373 14.25 9.6 13.7183 9.6 13.0625V12.4688C9.6 12.1408 9.33137 11.875 9 11.875H6.6C6.26863 11.875 6 12.1408 6 12.4688V13.0625C6 13.7183 5.46274 14.25 4.8 14.25C4.13726 14.25 3.6 13.7183 3.6 13.0625V12.4688ZM7.8 8.90625C8.9598 8.90625 9.9 7.97584 9.9 6.82812C9.9 5.68041 8.9598 4.75 7.8 4.75C6.6402 4.75 5.7 5.68041 5.7 6.82812C5.7 7.97584 6.6402 8.90625 7.8 8.90625ZM13.2 8.3125C13.2 7.65666 13.7373 7.125 14.4 7.125H16.8C17.4627 7.125 18 7.65666 18 8.3125C18 8.96834 17.4627 9.5 16.8 9.5H14.4C13.7373 9.5 13.2 8.96834 13.2 8.3125ZM14.4 10.6875C13.7373 10.6875 13.2 11.2192 13.2 11.875C13.2 12.5308 13.7373 13.0625 14.4 13.0625H19.2C19.8627 13.0625 20.4 12.5308 20.4 11.875C20.4 11.2192 19.8627 10.6875 19.2 10.6875H14.4Z" fill="#CED1D6"/>
</svg>
