<svg width="23" height="23" viewBox="0 0 23 23" fill="none" xmlns="http://www.w3.org/2000/svg">
<path d="M11.5 0C11.4084 0 11.3171 0.0010726 11.226 0.00320703C10.591 0.0180826 10.0884 0.544873 10.1032 1.17983C10.1181 1.81478 10.6449 2.31745 11.2798 2.30258C11.353 2.30086 11.4264 2.3 11.5 2.3C11.5736 2.3 11.647 2.30086 11.7202 2.30258C12.3551 2.31745 12.8819 1.81478 12.8968 1.17983C12.9116 0.544873 12.409 0.0180826 11.774 0.00320703C11.6829 0.0010726 11.5916 0 11.5 0Z" fill="#CED1D6"/>
<path d="M17.0131 1.40539C16.4559 1.10052 15.7571 1.30505 15.4522 1.86222C15.1473 2.41939 15.3518 3.11821 15.909 3.42309C16.0372 3.49324 16.1636 3.56636 16.288 3.64237C16.83 3.97343 17.5378 3.80243 17.8689 3.26042C18.1999 2.7184 18.0289 2.01063 17.4869 1.67956C17.3314 1.58455 17.1734 1.49312 17.0131 1.40539Z" fill="#CED1D6"/>
<path d="M7.09099 3.42309C7.64816 3.11821 7.85269 2.41939 7.54782 1.86222C7.24294 1.30505 6.54412 1.10052 5.98695 1.40539C5.82662 1.49312 5.66862 1.58455 5.51308 1.67956C4.97107 2.01063 4.80006 2.7184 5.13113 3.26042C5.4622 3.80243 6.16997 3.97344 6.71199 3.64237C6.83642 3.56636 6.96279 3.49324 7.09099 3.42309Z" fill="#CED1D6"/>
<path d="M21.3204 5.51308C20.9894 4.97107 20.2816 4.80006 19.7396 5.13113C19.1976 5.4622 19.0266 6.16997 19.3576 6.71199C19.4336 6.83642 19.5068 6.96279 19.5769 7.09099C19.8818 7.64816 20.5806 7.85269 21.1378 7.54782C21.695 7.24294 21.8995 6.54412 21.5946 5.98695C21.5069 5.82662 21.4155 5.66862 21.3204 5.51308Z" fill="#CED1D6"/>
<path d="M3.64237 6.71199C3.97343 6.16998 3.80243 5.4622 3.26042 5.13113C2.7184 4.80006 2.01063 4.97107 1.67956 5.51308C1.58455 5.66863 1.49312 5.82662 1.40539 5.98695C1.10052 6.54412 1.30505 7.24294 1.86222 7.54782C2.41939 7.85269 3.11821 7.64816 3.42309 7.09099C3.49324 6.96279 3.56636 6.83643 3.64237 6.71199Z" fill="#CED1D6"/>
<path d="M2.30258 11.2798C2.31745 10.6449 1.81478 10.1181 1.17983 10.1032C0.544873 10.0884 0.0180826 10.591 0.00320703 11.226C0.0010726 11.3171 0 11.4084 0 11.5C0 11.5916 0.0010726 11.6829 0.00320703 11.774C0.0180826 12.409 0.544873 12.9116 1.17983 12.8968C1.81478 12.8819 2.31745 12.3551 2.30258 11.7202C2.30086 11.647 2.3 11.5736 2.3 11.5C2.3 11.4264 2.30086 11.353 2.30258 11.2798Z" fill="#CED1D6"/>
<path d="M22.9968 11.226C22.9819 10.591 22.4551 10.0884 21.8202 10.1032C21.1852 10.1181 20.6825 10.6449 20.6974 11.2798C20.6991 11.353 20.7 11.4264 20.7 11.5C20.7 11.5736 20.6991 11.647 20.6974 11.7202C20.6825 12.3551 21.1852 12.8819 21.8202 12.8968C22.4551 12.9116 22.9819 12.409 22.9968 11.774C22.9989 11.6829 23 11.5916 23 11.5C23 11.4084 22.9989 11.3171 22.9968 11.226Z" fill="#CED1D6"/>
<path d="M21.5946 17.0131C21.8995 16.4559 21.695 15.7571 21.1378 15.4522C20.5806 15.1473 19.8818 15.3518 19.5769 15.909C19.5068 16.0372 19.4336 16.1636 19.3576 16.288C19.0266 16.83 19.1976 17.5378 19.7396 17.8689C20.2816 18.1999 20.9894 18.0289 21.3204 17.4869C21.4155 17.3314 21.5069 17.1734 21.5946 17.0131Z" fill="#CED1D6"/>
<path d="M3.42309 15.909C3.11821 15.3518 2.41939 15.1473 1.86222 15.4522C1.30505 15.7571 1.10052 16.4559 1.40539 17.0131C1.49312 17.1734 1.58455 17.3314 1.67956 17.4869C2.01063 18.0289 2.7184 18.1999 3.26042 17.8689C3.80243 17.5378 3.97344 16.83 3.64237 16.288C3.56636 16.1636 3.49324 16.0372 3.42309 15.909Z" fill="#CED1D6"/>
<path d="M17.4869 21.3204C18.0289 20.9894 18.1999 20.2816 17.8689 19.7396C17.5378 19.1976 16.83 19.0266 16.288 19.3576C16.1636 19.4336 16.0372 19.5068 15.909 19.5769C15.3518 19.8818 15.1473 20.5806 15.4522 21.1378C15.7571 21.695 16.4559 21.8995 17.0131 21.5946C17.1734 21.5069 17.3314 21.4155 17.4869 21.3204Z" fill="#CED1D6"/>
<path d="M6.71199 19.3576C6.16998 19.0266 5.4622 19.1976 5.13113 19.7396C4.80006 20.2816 4.97107 20.9894 5.51308 21.3204C5.66863 21.4155 5.82662 21.5069 5.98695 21.5946C6.54412 21.8995 7.24294 21.695 7.54782 21.1378C7.85269 20.5806 7.64816 19.8818 7.09099 19.5769C6.96279 19.5068 6.83643 19.4336 6.71199 19.3576Z" fill="#CED1D6"/>
<path d="M11.2798 20.6974C10.6449 20.6825 10.1181 21.1852 10.1032 21.8202C10.0884 22.4551 10.591 22.9819 11.226 22.9968C11.3171 22.9989 11.4084 23 11.5 23C11.5916 23 11.6829 22.9989 11.774 22.9968C12.409 22.9819 12.9116 22.4551 12.8968 21.8202C12.8819 21.1852 12.3551 20.6825 11.7202 20.6974C11.647 20.6991 11.5736 20.7 11.5 20.7C11.4264 20.7 11.353 20.6991 11.2798 20.6974Z" fill="#CED1D6"/>
<path fill-rule="evenodd" clip-rule="evenodd" d="M4.6 11.5C4.6 7.68924 7.68924 4.6 11.5 4.6C15.3108 4.6 18.4 7.68924 18.4 11.5C18.4 15.3108 15.3108 18.4 11.5 18.4C7.68924 18.4 4.6 15.3108 4.6 11.5ZM9.2 11.5C9.2 10.2297 10.2297 9.2 11.5 9.2C12.7703 9.2 13.8 10.2297 13.8 11.5C13.8 12.7703 12.7703 13.8 11.5 13.8C10.2297 13.8 9.2 12.7703 9.2 11.5Z" fill="#CED1D6"/>
</svg>
