<svg width="20" height="17" viewBox="0 0 20 17" fill="none" xmlns="http://www.w3.org/2000/svg">
<path d="M7.5 0C5.01472 0 3 2.01472 3 4.5C3 6.98528 5.01472 9 7.5 9C9.98528 9 12 6.98528 12 4.5C12 2.01472 9.98528 0 7.5 0Z" fill="#D1D3D8"/>
<path d="M13 6C13 4.34315 14.3431 3 16 3C17.6569 3 19 4.34315 19 6C19 7.65685 17.6569 9 16 9C14.3431 9 13 7.65685 13 6Z" fill="#D1D3D8"/>
<path d="M15.0008 10.0002H17C18.6569 10.0002 20 11.3434 20 13.0002V14.5002C20 15.3287 19.3284 16.0002 18.5 16.0002H17V14C17 12.3645 16.2148 10.9125 15.0008 10.0002Z" fill="#D1D3D8"/>
<path d="M0 14C0 11.7909 1.79086 10 4 10H11C13.2091 10 15 11.7909 15 14V15.5C15 16.3284 14.3284 17 13.5 17H1.5C0.671574 17 0 16.3284 0 15.5V14Z" fill="#D1D3D8"/>
</svg>
