<svg width="21" height="19" viewBox="0 0 21 19" fill="none" xmlns="http://www.w3.org/2000/svg">
<path d="M10.5 0C9.66488 0 8.7311 0.190653 7.96542 0.39097C6.19511 0.854114 5.17565 2.40951 5.17565 3.99673V8.00327C5.17565 9.59049 6.19512 11.1459 7.96542 11.609C8.7311 11.8093 9.66488 12 10.5 12C11.3351 12 12.2689 11.8093 13.0346 11.609C14.8049 11.1459 15.8244 9.59049 15.8244 8.00327V3.99673C15.8244 2.40951 14.8049 0.854114 13.0346 0.39097C12.2689 0.190653 11.3351 0 10.5 0Z" fill="#CED1D6"/>
<path d="M3.64389 13C2.17798 13 0.90019 13.9369 0.544656 15.2724L0.0484784 17.1362C-0.203555 18.0829 0.558932 19 1.59809 19H19.4019C20.4411 19 21.2036 18.0829 20.9515 17.1362L20.4553 15.2724C20.0998 13.9369 18.822 13 17.3561 13H13.0708C12.506 13 11.9643 13.2107 11.5649 13.5858L10.5 14.5858L9.43513 13.5858C9.03573 13.2107 8.49402 13 7.92917 13H3.64389Z" fill="#CED1D6"/>
</svg>
